<svg id="Layer_1" data-name="Layer 1" xmlns="http://www.w3.org/2000/svg" viewBox="0 0 190 90"><defs><style>.cls-1{fill:#778692;}.cls-2{fill:#adb5bd;}</style></defs><title>ccfd_terre_solidaire_logo</title><path class="cls-1" d="M12.69,86.54c.12.43,0,.58-.51.84A8.52,8.52,0,0,1,8.71,88a5.34,5.34,0,0,1-3.44-1.08c-1.15-1-1.34-2.68-1.34-4.71V81.5c0-2.14.38-3.65,1.43-4.55A5.37,5.37,0,0,1,9,75.84a7.47,7.47,0,0,1,3.69,1,.55.55,0,0,1,.24.83l-.61,1.2a.44.44,0,0,1-.68.17,4.47,4.47,0,0,0-2.52-.79,2.34,2.34,0,0,0-1.6.5c-.67.6-.64,1.51-.64,3v.38c0,1.62.09,2.39.55,2.94a2.18,2.18,0,0,0,1.84.67,6.68,6.68,0,0,0,2.41-.5c.36-.17.64-.09.75.26Z"/><path class="cls-1" d="M22.62,86.54c.12.43,0,.58-.51.84a8.48,8.48,0,0,1-3.47.62,5.32,5.32,0,0,1-3.44-1.08c-1.15-1-1.34-2.68-1.34-4.71V81.5c0-2.14.38-3.65,1.43-4.55a5.37,5.37,0,0,1,3.59-1.11,7.43,7.43,0,0,1,3.68,1,.54.54,0,0,1,.24.83l-.59,1.2a.45.45,0,0,1-.69.17A4.47,4.47,0,0,0,19,78.24a2.36,2.36,0,0,0-1.6.5c-.67.6-.65,1.51-.65,3v.38c0,1.62.09,2.39.55,2.94a2.22,2.22,0,0,0,1.85.67,6.73,6.73,0,0,0,2.41-.5c.37-.17.65-.09.74.26Z"/><path class="cls-1" d="M29,87.19c0,.48-.15.6-.68.6h-1.5c-.53,0-.67-.12-.67-.6V78.45H25c-.45,0-.6-.12-.6-.53v-1c0-.38.1-.43.47-.5l1.35-.24v-.93c0-1.7.28-2.42,1-3a4.62,4.62,0,0,1,3.14-.83,7.84,7.84,0,0,1,2.12.25c.37.1.44.22.37.58l-.22,1.31c0,.34-.19.44-.54.34a6.11,6.11,0,0,0-1.34-.17,2.19,2.19,0,0,0-1.25.27c-.32.21-.43.62-.43,1.46v.64h2.22c.44,0,.55.12.55.53V78c0,.36-.11.48-.59.48H29Z"/><path class="cls-1" d="M43.23,83.55c0,1.72-.32,2.63-1.08,3.32A5.83,5.83,0,0,1,38.2,88a5.31,5.31,0,0,1-3.7-1c-1-.87-1.41-2.33-1.41-4.55v-1c0-2.2.43-3.47,1.36-4.41a4.82,4.82,0,0,1,3.62-1.22,4.38,4.38,0,0,1,2.27.6h0V72.19c0-.49.14-.61.67-.61h1.51c.53,0,.67.12.67.61Zm-2.85-3.28c0-1-.19-1.37-.48-1.63a2.2,2.2,0,0,0-1.6-.5,2.07,2.07,0,0,0-1.72.7c-.51.59-.6,1.36-.6,2.7v.74c0,1.54.14,2.27.57,2.81a1.94,1.94,0,0,0,1.65.61,2.14,2.14,0,0,0,1.73-.52,2.56,2.56,0,0,0,.45-1.77Z"/><path class="cls-1" d="M50.41,80.75c.3,0,.38.15.38.36V82c0,.31-.22.31-.38.31H45.8c-.28,0-.35-.12-.35-.36v-.88c0-.21.07-.36.35-.36Z"/><path class="cls-1" d="M56.49,87.79a3.39,3.39,0,0,1-2.69-1A4.14,4.14,0,0,1,53,84.08V77.42H51.56c-.18,0-.25,0-.25-.26v-.48c0-.21.07-.28.25-.31l1.46-.3V73.36a.28.28,0,0,1,.28-.29h1a.26.26,0,0,1,.26.29v2.71h2.8c.17,0,.24.06.24.23v.89a.21.21,0,0,1-.24.23h-2.8v6.47a3.06,3.06,0,0,0,.44,2,2,2,0,0,0,1.74.6h.86c.14,0,.29,0,.29.26v.81c0,.17-.08.27-.29.27Z"/><path class="cls-1" d="M67.82,81.9c0,.67-.21.91-.89.91H60.75c.11,2.87.89,3.85,3.14,3.85a7.41,7.41,0,0,0,2.64-.48c.31-.12.49-.07.56.17l.18.55c.07.24.1.41-.53.65a8.12,8.12,0,0,1-2.85.45c-3.54,0-4.71-1.75-4.71-5.6v-1c0-3.75,1.15-5.6,4.49-5.6a4.29,4.29,0,0,1,3.09,1,3.91,3.91,0,0,1,1.06,3.11Zm-7.07-.46H65.9c.24,0,.33,0,.33-.35v-.91A3.25,3.25,0,0,0,65.69,78a2.4,2.4,0,0,0-2-.76c-2,0-2.92.9-3,4.25"/><path class="cls-1" d="M70.34,87.79c-.29,0-.38-.1-.38-.32V76.32c0-.16.09-.25.28-.25h.7c.21,0,.26.09.28.25l.1,1.25h.05a3,3,0,0,1,2.77-1.5h.62c.25,0,.32.06.32.28v.81c0,.19-.1.26-.32.26h-.64a2.2,2.2,0,0,0-2.18,1,3.53,3.53,0,0,0-.43,1.89v7.17c0,.2-.12.32-.4.32Z"/><path class="cls-1" d="M77.23,87.79c-.29,0-.39-.1-.39-.32V76.32c0-.16.1-.25.29-.25h.7c.21,0,.26.09.28.25l.1,1.25h.05A3,3,0,0,1,81,76.07h.63c.24,0,.3.06.3.28v.81c0,.19-.08.26-.3.26H81a2.17,2.17,0,0,0-2.16,1,3.44,3.44,0,0,0-.44,1.89v7.17c0,.2-.12.32-.4.32Z"/><path class="cls-1" d="M91.44,81.9c0,.67-.22.91-.89.91H84.38c.1,2.87.88,3.85,3.14,3.85a7.3,7.3,0,0,0,2.62-.48c.32-.12.5-.07.58.17l.17.55c.07.24.1.41-.53.65a8.1,8.1,0,0,1-2.84.45C84,88,82.8,86.25,82.8,82.4v-1c0-3.75,1.15-5.6,4.5-5.6a4.31,4.31,0,0,1,3.09,1,4,4,0,0,1,1,3.11Zm-7.06-.46h5.14c.25,0,.33,0,.33-.35v-.91A3.25,3.25,0,0,0,89.31,78a2.38,2.38,0,0,0-2-.76c-2,0-2.92.9-3,4.25"/><path class="cls-1" d="M98.88,87.31c-.42-.17-.47-.31-.39-.72l.28-1.17c.1-.39.31-.51.66-.36a8.87,8.87,0,0,0,2.88.62,2.79,2.79,0,0,0,1.55-.28,1,1,0,0,0,.41-.94v-.17c0-.76-.41-1-1.39-1.24l-1.44-.34a3.53,3.53,0,0,1-2.1-1.07,3.23,3.23,0,0,1-.72-2.21v-.21a3,3,0,0,1,1-2.59,5.12,5.12,0,0,1,3.23-.79,10.56,10.56,0,0,1,3.21.49c.33.11.38.21.31.57l-.29,1.34c-.06.36-.28.4-.59.31a8.33,8.33,0,0,0-2.32-.38,2.66,2.66,0,0,0-1.49.26.84.84,0,0,0-.33.77v.16c0,.72.47.91,1.21,1.08l1.49.34a4,4,0,0,1,2.42,1.29,3.2,3.2,0,0,1,.52,2v.29a3.42,3.42,0,0,1-1,2.58A5,5,0,0,1,102.54,88a10.1,10.1,0,0,1-3.66-.69"/><path class="cls-1" d="M118.31,77.26a6.44,6.44,0,0,1,1.22,4.31v.71a6.35,6.35,0,0,1-1.22,4.31,5.84,5.84,0,0,1-7.61,0,6.3,6.3,0,0,1-1.22-4.31v-.71a6.38,6.38,0,0,1,1.22-4.31,4.72,4.72,0,0,1,3.8-1.42,4.77,4.77,0,0,1,3.81,1.42m-2.21,7.83a5.08,5.08,0,0,0,.53-2.92v-.51a4.9,4.9,0,0,0-.53-2.89,1.72,1.72,0,0,0-1.6-.65,1.75,1.75,0,0,0-1.6.65,4.9,4.9,0,0,0-.53,2.89v.51a5.08,5.08,0,0,0,.53,2.92,1.81,1.81,0,0,0,1.6.64,1.79,1.79,0,0,0,1.6-.64"/><path class="cls-1" d="M125.16,84.6c0,.58.19.79.7.79h.71c.44,0,.55.15.55.58v1.24c0,.46-.15.58-.55.58H125a2.57,2.57,0,0,1-2-.58,3,3,0,0,1-.7-2.34V72.18c0-.48.15-.59.68-.59h1.5c.53,0,.67.11.67.59Z"/><path class="cls-1" d="M133.17,73.17a1.55,1.55,0,0,1-1.67,1.67h-.13c-1.22,0-1.66-.6-1.66-1.67V73a1.51,1.51,0,0,1,1.66-1.64h.13A1.49,1.49,0,0,1,133.17,73Zm-.31,14c0,.48-.15.6-.67.6h-1.51c-.53,0-.67-.12-.67-.6V76.66c0-.48.14-.6.67-.6h1.51c.52,0,.67.12.67.6Z"/><path class="cls-1" d="M146.07,83.55c0,1.72-.31,2.63-1.08,3.32A5.82,5.82,0,0,1,141.05,88a5.36,5.36,0,0,1-3.72-1c-1-.87-1.4-2.33-1.4-4.55v-1c0-2.2.43-3.47,1.36-4.41a4.8,4.8,0,0,1,3.61-1.22,4.32,4.32,0,0,1,2.27.6h.06V72.19c0-.49.14-.61.66-.61h1.5c.54,0,.68.12.68.61Zm-2.84-3.28c0-1-.2-1.37-.49-1.63a2.2,2.2,0,0,0-1.6-.5,2.11,2.11,0,0,0-1.73.7,4,4,0,0,0-.59,2.7v.74c0,1.54.14,2.27.57,2.81a2,2,0,0,0,1.66.61,2.11,2.11,0,0,0,1.72-.52,2.61,2.61,0,0,0,.46-1.77Z"/><path class="cls-1" d="M156,86.78A2.67,2.67,0,0,1,153.39,88h-.89a3.65,3.65,0,0,1-2.63-.77,3.39,3.39,0,0,1-1-2.68V84a3.38,3.38,0,0,1,1-2.77,5.33,5.33,0,0,1,3.5-.88h.85c.43,0,.94,0,1.34,0v-.65a1.43,1.43,0,0,0-.4-1.21,2.53,2.53,0,0,0-1.65-.34,11.44,11.44,0,0,0-3,.45c-.38.13-.52,0-.6-.38l-.21-1.12c-.09-.41,0-.6.36-.72a12.94,12.94,0,0,1,3.62-.58,5.83,5.83,0,0,1,3.45.77c.84.6,1.24,1.46,1.24,3.16v7.56c0,.32-.17.46-.51.46H156.8c-.37,0-.51-.12-.59-.43l-.14-.58Zm-.49-4.11c-.4,0-.91,0-1.39,0h-.83a2,2,0,0,0-1.24.28,1.47,1.47,0,0,0-.37,1.18v.29a1.35,1.35,0,0,0,.37,1.07,1.55,1.55,0,0,0,1,.29H154c1.1,0,1.55-.51,1.55-1.6Z"/><path class="cls-1" d="M165,73.17a1.55,1.55,0,0,1-1.66,1.67h-.14c-1.21,0-1.66-.6-1.66-1.67V73a1.51,1.51,0,0,1,1.66-1.64h.14A1.49,1.49,0,0,1,165,73Zm-.3,14c0,.48-.15.6-.67.6h-1.51c-.53,0-.67-.12-.67-.6V76.66c0-.48.14-.6.67-.6H164c.52,0,.67.12.67.6Z"/><path class="cls-1" d="M170.48,77.61h0a3.34,3.34,0,0,1,3.19-1.54H174c.5,0,.67.09.67.56V77.9c0,.41-.14.55-.67.55h-.43a2.4,2.4,0,0,0-1.93.6,2.65,2.65,0,0,0-.56,2v6.1c0,.48-.14.6-.68.6h-1.5c-.52,0-.67-.12-.67-.6V76.61c0-.4.17-.54.58-.54h.84c.4,0,.56.06.61.43Z"/><path class="cls-1" d="M186.07,82.59c0,.51-.15.7-.65.7h-6a2.47,2.47,0,0,0,.6,1.91,3.15,3.15,0,0,0,2.1.48,7.8,7.8,0,0,0,2.59-.5c.28-.12.52-.12.67.38l.31,1.15c.1.36,0,.5-.44.67a10,10,0,0,1-3.46.62c-1.95,0-3.21-.39-4-1.22s-1.25-2.34-1.25-4.55v-.64c0-3.76,1.25-5.75,4.93-5.75a4.67,4.67,0,0,1,3.38,1.08c.78.72,1.22,1.75,1.22,4Zm-6.06-4a3.6,3.6,0,0,0-.62,2.44h3.51c.25,0,.32-.09.32-.34a3.4,3.4,0,0,0-.45-2.13,1.74,1.74,0,0,0-1.4-.45,1.72,1.72,0,0,0-1.36.48"/><path class="cls-2" d="M95,2a22.6,22.6,0,1,0,22.58,22.59A22.6,22.6,0,0,0,95,2"/><path class="cls-1" d="M87.6,55.46c-1.91-2.67-4.43-2.93-6.13-3.76a9.83,9.83,0,0,1-2.84-1.93c-2.14-2.5-3.91-8.52-6.69-5.49,0,.86,2.12,4.72.94,3.17-.36-.46-1-1.26-2.17-2.62-.54-.62-3.2-3.14-3.2-12.41,0-2.35-3.45-3.68-3.45,2.44,0,3.36-.48,12.82,3.32,17.64,3,3.79,9.43,4.57,11.14,10,.18.55.47,1.77.47,1.77v2.34a44,44,0,0,0,10.79,2.68V62.77a14,14,0,0,0-2.18-7.31"/><path class="cls-1" d="M111.48,62.53c1.7-5.46,8.16-6.24,11.14-10,3.79-4.83,3.31-14.28,3.31-17.64,0-6.12-3.44-4.78-3.44-2.44,0,9.27-2.67,11.79-3.21,12.42-1.2,1.35-1.82,2.15-2.16,2.61-1.19,1.55.93-2.31.93-3.17-2.78-3-4.54,3-6.69,5.49a9.69,9.69,0,0,1-2.83,1.93c-1.71.83-4.22,1.1-6.13,3.76a14.1,14.1,0,0,0-2.19,7.31v6.55A43.85,43.85,0,0,0,111,66.64V64.29s.3-1.21.48-1.76"/></svg>