<svg id="Layer_1" data-name="Layer 1" xmlns="http://www.w3.org/2000/svg" viewBox="0 0 130 90"><defs><style>.cls-1{fill:#adb5bd;}</style></defs><title>cipe_logo</title><path class="cls-1" d="M90.72,49.26l.07,0Zm12.16,5.43a.06.06,0,0,1,0,0h0A.05.05,0,0,1,102.88,54.69ZM90.54,49.35l0,0ZM37.08,39.2c-.24,0-.36-.09-.52,0v-.06h-.24v.07c0,.12-.3.08-.3.21s.1.09.21.09c.35,0,.57-.14.92-.14.13,0,.15.17.32.17s.16-.13.16-.19v-.1a2.47,2.47,0,0,1,.36-.11h-.6a.85.85,0,0,1-.31.06Zm-12.83-.06h0Zm18.18.29s.08.14.11.14c.19,0,.24-.19.37-.31l.09.09a1.11,1.11,0,0,1,.32-.21h-.64c-.08.11-.25.15-.25.29Zm-3.36,8.73a1,1,0,0,0,.34-.09H38.8A.44.44,0,0,0,39.07,48.16ZM39,45.61s-.09-.09-.15-.09a1.34,1.34,0,0,0-.49.1H39Zm1.52-6.45-.16,0H38.55c0,.2.5.25.5.25h.66c.23.05.3-.18.47-.18s.22.05.42.05c0,0-.15.16-.15.24s0,.23.32-.16c.08-.09.26-.13.38-.21h-.42a.68.68,0,0,1-.2,0ZM82.34,86.07h.41l.14,0-.66-.27a.46.46,0,0,1,.11.29Zm-44.69-38h0Zm9.13-11.39h0a.33.33,0,0,0-.14,0Zm49.63,18a.51.51,0,0,0-.16.09h.12A.36.36,0,0,0,96.41,54.64ZM85.1,48.24a5.61,5.61,0,0,0,1-.17H84.56a1.18,1.18,0,0,0,.54.17Zm1.13,6.34c-.27-.39-.53-.41-.74-.77a3.73,3.73,0,0,0-.79-1.1,1.1,1.1,0,0,1-.06-.26h0c0,.17-.11.35,0,.45-.16.06-.06,0-.15,0s-.29-.24-.42-.45h-.11c.15.37.53.9.64,1.12s.36.39.44.67a1.5,1.5,0,0,0,.15.49h1.06ZM47.2,86s-.07.08-.11.08a.11.11,0,0,1-.08,0c-.28.11-.56.2-.85.3a1.17,1.17,0,0,0,.44.13c0-.1.22-.1.29-.1a.42.42,0,0,1,.16,0c.39-.07,1.07-.08,1.07-.35a.51.51,0,0,0-.21-.38L47.2,86Zm43-46.9h-.56A.77.77,0,0,0,90.19,39.14Zm21,4.47.33-.09h-.32A.34.34,0,0,1,111.2,43.61ZM34.94,57.24a1,1,0,0,0,.23-.06H35A.13.13,0,0,0,34.94,57.24Zm53.13-18.1H88S88.06,39.16,88.07,39.14Zm-1.3.11a.89.89,0,0,0,.36-.11h-.55C86.65,39.18,86.68,39.25,86.77,39.25Zm23.76,15.47h0ZM45.91,82a2.32,2.32,0,0,1-.84.25c-.29,0-.55-.18-.77-.18s-.15-.13-.23-.16a7.68,7.68,0,0,1-1.07-.5H19.47a28.83,28.83,0,0,0,3.46,2.45H48.31a.45.45,0,0,1,.27-.12,2,2,0,0,0,.75-.27h.29c-.22.29-.56.27-.86.39h2.92a28.39,28.39,0,0,0,3.42-2.45H44.69a1.49,1.49,0,0,0,.38.28c.23.13.7.13.84.31Zm-8.83-17.1c0-.21,0-.43,0-.64,0,0,.14-.19.2-.21a.31.31,0,0,0,.25-.4c-.06,0-.11.11-.19.11a.27.27,0,0,1-.2-.17.13.13,0,0,1,0-.06H9.76c.1.83.23,1.65.4,2.45H38a5,5,0,0,1-.42-.73C37.49,65,37.08,65.07,37.08,64.86Zm1.24-4c0-.07.08-.17.08-.23,0-.23-.19-.28-.19-.41a.06.06,0,0,1,0,0l0,0a1.24,1.24,0,0,0-.1-.2v-.08l.1,0c-.1-.1-.19-.24-.4-.24a1.57,1.57,0,0,0-.39.31s.1.06.13.06a.16.16,0,0,1-.11.22h-.08c-.12,0-.09-.09-.09-.16-.23,0-.2-.11-.39-.16s-.5-.18-.5-.18,0-.08,0-.11c-.16-.11-.35-.36-.49-.36a.69.69,0,0,1,.07.15s0,0-.07,0-.25-.11-.25-.2a.21.21,0,0,1,0-.11H9.58c0,.32-.05.64-.05,1,0,.5.05,1,.07,1.48H38.37a.3.3,0,0,0,0-.1c0-.25-.07-.42-.07-.63Zm-5.66-3.67h.5a.54.54,0,0,0-.28-.08A.35.35,0,0,0,32.66,57.18Zm60-24.87a27.52,27.52,0,0,0-10.59,2.1h21.17A27.47,27.47,0,0,0,92.7,32.31Z"/><path class="cls-1" d="M35.58,86.8c.12,0,.21-.16.35-.16.42,0,.48.11,1,.11s.48-.11.75-.11.54.32.92.32c.13,0,.21-.09.28-.21a6.93,6.93,0,0,0,2,.27c.1,0,.22,0,.35,0h0a.34.34,0,0,0,.14,0,2.92,2.92,0,0,0-1.12-.53H41a1.05,1.05,0,0,1-.4-.19,2.7,2.7,0,0,1,.75-.08c.13,0,1.32.22,1.32.22q1.07.15,2.13.21c.39,0,.93,0,1-.38a1.75,1.75,0,0,1,.32.12l.84-.29A.09.09,0,0,1,47,86c0-.06.09-.18.1-.27a.77.77,0,0,1,.12.28l.71-.29-.19-.15H26.28a27.37,27.37,0,0,0,5.45,1.71,2.16,2.16,0,0,1,.51-.06,13.39,13.39,0,0,0,3.34-.42ZM19.82,43.28c.13,0,.25-.21.44-.23a3.68,3.68,0,0,0,1.34-.59.34.34,0,0,0-.1-.16l-.15.13h-.17c0-.09,0-.19-.12-.19s-.2.11-.34.17h-.23c.09-.14.43-.31.46-.43s-.21,0-.33,0-.14-.28-.17-.5l.57-.42H17.1a28,28,0,0,0-2.05,2.45h3.64a5.09,5.09,0,0,1,1-.23Zm21.34,30.1c0-.15.09-.08.09-.19s-.15-.19-.15-.32.11-.53.12-.59v0H12.36a27.8,27.8,0,0,0,1.36,2.45H41.39v0c0-.52-.23-.8-.23-1.28Zm-.92-4.66c-.38-.27-1.11-.4-1.31-.85H10.66c.24.84.53,1.65.85,2.46H41.16A1.71,1.71,0,0,0,40.24,68.72Zm49.81-.37c-.08,0-.1-.13-.11-.16a.24.24,0,0,0-.12.24c0,.15.09.11.09.23a2.57,2.57,0,0,1-.32.57,9.7,9.7,0,0,0-.44,1.1H110.9c.07,0,.15,0,.25-.08s.15-.18.3-.26.44-.07.68-.17.46-.06.79-.15a3.63,3.63,0,0,0,.48-.48h0a.54.54,0,0,0,.14-.27.53.53,0,0,1,.31-.39c0,.09.06.22.15.22s.06-.11.06-.11,0-.08,0-.11v-.1a1.71,1.71,0,0,0,.32,0c0-.16.1-.36.2-.38s.1-.1.13-.17H90.08a1.53,1.53,0,0,1,.07.36s-.05.12-.1.12ZM19.42,43.45a1,1,0,0,0-.33.07h.41A.08.08,0,0,0,19.42,43.45Zm7.92,0h0c-.07-.14,0-.23-.07-.36s-.16-.14-.24-.27.06-.39.17-.54c-.13,0-.08-.2-.17-.29s-.35,0-.38-.08a.14.14,0,0,1-.15-.1l0,0a1.5,1.5,0,0,1-.51.11c-.2,0-.57-.06-.6-.3H25.2a1.3,1.3,0,0,1-.66.3,1.2,1.2,0,0,0-.75.28H23.5c.19-.3.51-.31.78-.56-.35,0-.87.46-1.18.46-.15,0-.24.25-.46.35s-.6.09-.92.23c-.09,0-.2.19-.37.21a7.22,7.22,0,0,0-1.8.61h7.73Zm-3.18-4.34h.14a2.78,2.78,0,0,0,.81-.3,9.14,9.14,0,0,1,2.13-.42c.24,0,.43.1.75.1a.14.14,0,0,0,.09.11h.69c.22.2.72,0,1.06.16h.28c.14.14.38.08.64.16.09,0,.11.11.23.11a4.05,4.05,0,0,0,.75-.17.8.8,0,0,0,.55-.05,1.65,1.65,0,0,1,.78-.11c.22,0,.5,0,.61,0h.13c0,.06,0,.19.1.19a1.11,1.11,0,0,0,.36-.18.16.16,0,0,1,.14.16v0c0,.14.2-.08.39-.08a4,4,0,0,1,.74.17,1,1,0,0,0,.41.11s.34-.1.39,0h.24v-.08a.13.13,0,0,0,.1-.11.71.71,0,0,1-.68-.16c.15-.05.39-.08.56-.13h.91s0-.08,0-.08H36.21c0-.16,0-.14.15-.23s.26-.18.46-.22a2.44,2.44,0,0,0,1-.35s0,.16,0,.16.19,0,.29,0,.24.09.35.09.12-.16.23-.16.11,0,.2.07-.1.27,0,.27.14-.21.23-.32a3.61,3.61,0,0,1,.87-.24h.17c0,.23-.75.5-.75.83,0,.17.48.11.48.3s-.26.06-.31.06-.19.28-.38.3h1.17a1.75,1.75,0,0,1-.32-.12,2,2,0,0,1,.63-.25c0,.11.14.11.23.11a.81.81,0,0,0,0,.22l-.18,0h.42a.29.29,0,0,0,.12-.1c.17-.26-.17-.18-.17-.28s.51-.5.75-.57.12-.26.22-.35a1,1,0,0,1,.76-.28c.19,0,.57,0,.64.08s0,0,0,.07c-.27.06-.49.27-.84.27s-.48.11-.48.25v.32c0,.14,0,.16-.15.24,0,.1.17.07.21.17s0,.15.06.15.21-.09.33-.09.2,0,.13.1l0,0h.64a.67.67,0,0,1,.18-.07s0-.06,0-.1a.17.17,0,0,1,.17-.15h.42c.07,0,.29.09.29.22s0,.08-.1.1h1.6a0,0,0,0,1,0,0h-.29a.07.07,0,0,1,.11-.05V38.9c-.25,0-.37-.36-.51-.18s-.2.18-.35.18-.1-.07-.1-.16a4.92,4.92,0,0,1-1,0c-.22,0-.31-.11-.33-.22s-.19.11-.31.11-.12-.14-.13-.17a.39.39,0,0,1,.28-.05c-.09,0-.23-.08-.23-.18,0-.44,1.13-.43,1.44-.56h.17c-.19.25-.61.13-.69.51h.18a.63.63,0,0,1,.42-.3c.07,0,.63-.21.75-.23h.23a1.13,1.13,0,0,0,0,.18c.13,0,.16-.18.29-.18s.67.09.76.26c-.25.05-.48.07-.66.11a3.49,3.49,0,0,0,.65,0c.28,0,.23.29.36.37a.36.36,0,0,1,.24-.13,4.29,4.29,0,0,1,.9.5c-.07.06-.35.15-.35.28h-.23v.1h4.2a1.34,1.34,0,0,0,.23-.4.79.79,0,0,0-.55-.06c.08,0,.14,0,.2,0,0,.19-.15.18-.32.18s-.25,0-.25-.16c0-.31.71-.2.88-.27a1.05,1.05,0,0,1-.31-.32c-.17,0-.18.16-.32.16a.15.15,0,0,1-.14-.13l.29-.51a.18.18,0,0,1-.09-.17.76.76,0,0,1,.06-.18.23.23,0,0,1-.29-.16v0c-.31,0-.43-.18-.83-.18s-.73.11-1,.11c-.07,0-.19-.16-.21-.16h0c-.09,0-.23-.06-.23-.14s.05,0,.1-.07H47.19a.24.24,0,0,1-.16.07.48.48,0,0,1-.21-.07h0l.25.11a1.12,1.12,0,0,1-.46.2c-.19,0-.24-.08-.4-.1H45c-.14,0-.49.17-.49-.09s.5,0,.58,0a.3.3,0,0,1,0-.13H39c-.23.15-.51.13-.72.32l-.1-.1c-.08.05-.36.11-.56.21h-.14c-.05-.11-.21-.06-.32-.07v0l-.06,0,.06,0V37a6.75,6.75,0,0,0,1.31-.26H22.38a26.9,26.9,0,0,0-3.28,2.45h4.8l.07,0a.59.59,0,0,0,.19,0Zm19.22-2.41c.22,0,.29.16.49.16h.26s.14-.11.25,0c-.05.06-.19.07-.19.16s.26.13.42.13c.45,0,.7-.11,1.15-.11a1.18,1.18,0,0,1,.55.14c0,.23-.23.29-.46.29s-.36-.08-.63-.08-.32-.08-.52-.08-.24.16-.46.16-.61-.15-.8,0a.32.32,0,0,1,.21-.34l.08-.06c-.17-.13-.22,0-.5,0a.38.38,0,0,1-.29-.18,1,1,0,0,1,.44-.11Zm-.26.56c-.07,0-.12.1-.23.1s-.27,0-.43,0c.14-.18.55-.3.66-.05Zm-1.79-.45a.22.22,0,0,1,.16.12h0v0a.25.25,0,0,0,.15,0s0-.13.05-.13.19.06.28.1.06-.21.15-.21.27.09.38,0a.42.42,0,0,0,.06.14c-.11.11-.38.35-.61.26,0,.07-.11.08-.2.08s-.21,0-.21-.16h-.25a.23.23,0,0,1-.15-.18c0-.08.14-.11.17-.11Zm-.31,1v-.11a3.12,3.12,0,0,1,.87-.18v.13a1,1,0,0,0-.33.15,1.17,1.17,0,0,0,.15.16c-.11.08-.23.18-.37.12-.05.23-.29.14-.43.26h-.18c0-.3-.34-.17-.34-.37a.14.14,0,0,1,.14-.13c.16,0,.18.08.32.08s.17,0,.17-.11Zm-2-1c0,.16.1.11.24.11,0,.2,0,.23.18.23.37,0,.44-.21.69-.34h.15V37l-.09.08a3.25,3.25,0,0,1,.44,0,1.23,1.23,0,0,1-.58.29c-.18,0-.23-.1-.37-.1-.37,0-.67.16-1.06.16-.08,0-.08,0-.15,0a.42.42,0,0,1,.2-.1,5,5,0,0,0-.78-.06,3.24,3.24,0,0,1,1.13-.39Zm-3.32.92.24-.2a6.17,6.17,0,0,1,.74-.07c.17,0,.27.16.44.16,0-.09,0-.11.14-.11a.53.53,0,0,1,.38.2c-.51.34-1.27.25-1.71.55a1.19,1.19,0,0,1-.46.05c-.13,0-.42.34-.4.22.06-.44-.35-.28-.37-.29.26-.24.73-.26,1-.52Zm83.5,27.93c-.11,0-.19,0-.19-.1s.31-.35.4-.36c-.1-.16,0-.34-.12-.5s-.37-.22-.53-.27a1.49,1.49,0,0,1-.58-.31c-.08-.07-.27,0-.35-.07s.06-.08.07-.14c-.11.11-.14.27-.3.27s-.07,0-.07,0,0-.09,0-.14a.85.85,0,0,0-.15-.28s-.08-.05-.08-.09v-.06h.08c.07,0,.12.05.18.05a.37.37,0,0,0,.16-.09.25.25,0,0,0,.27-.07H118c-.15,0-.25.06-.4.06a.34.34,0,0,1-.21-.08H114a1.09,1.09,0,0,0,.14.23V64c0,.11.15.09.25.08v.06c-.22,0-.26.21-.45.21l-.26-.51c0-.07.06-.07.06-.14s0-.07,0-.11-.13,0-.17,0l-.07.54v.27c0,.2-.06.29-.25.29s-.09-.06-.09-.11c0-.23.11-.31.11-.52v-.13c-.09,0-.23,0-.23-.12a1.8,1.8,0,0,1,.06-.32h-.81a.43.43,0,0,1,0,.11s-.09.08-.09.16.06.08.06.11,0,.06,0,.07c-.28,0-.35.16-.59.16s0-.1,0-.11v-.1c-.21,0-.28-.13-.45-.13s-.25.12-.39.12-.06,0-.07,0-.14-.11-.2-.11a.35.35,0,0,1-.34-.2v0h-1.29a.53.53,0,0,0,.14.11s0,.13-.06.13-.22-.13-.22-.2l0,0h-.29c.15.07.29.11.29.25s0,.57,0,.67,0,.15,0,.24l-.09,0-.19,0c-.08,0-.11,0-.14,0s-.15-.09-.19-.16-.38-.29-.54-.44a1.35,1.35,0,0,1-.43-.59H87.14a5.72,5.72,0,0,0-.39.73c-.07.16-.23.22-.23.38s-.12.19-.12.32.23.2.23.35v.22a3.73,3.73,0,0,0,0,.46h28l.13,0c.11,0,.09-.17.21-.2l.35-.07h.22v0h0l0,0v0a1.68,1.68,0,0,1-.56.26l0,0h4.86l.06-.36h-.34a.62.62,0,0,1-.32.09Zm-9.77-2.07c0,.07-.06.09-.06.14h-.11s0-.06,0-.09.13-.07.22-.05Zm2.29,2a.12.12,0,0,1-.11.11c-.09,0-.13-.1-.23-.14s0,.16-.07.16-.27-.13-.44-.13h-.56c0-.07-.11-.07-.18-.07s-.14-.09-.2-.1a1,1,0,0,0-.39,0h-.29c-.11,0-.13-.09-.2-.11a1,1,0,0,0-.24,0c0-.07-.08-.11-.08-.17s-.26,0-.34-.08.11,0,.15,0,0-.15.08-.19.19,0,.24,0a2.48,2.48,0,0,1,.54.06c.08,0,.1.13.11.18s.23.06.33.06c.28,0,.27-.11.46-.15,0,.06.12.07.17.07s.17.06.27.1.09.12.13.21.47.09.51.09.24.12.34.12Zm1.16.15h0a.39.39,0,0,1-.18,0,.54.54,0,0,1-.39.1c-.14,0-.14-.07-.14-.13a.27.27,0,0,1-.16.08.11.11,0,0,1-.11-.08c0-.08.17-.11.22-.11h.06v.06l.42.06h.09s-.1-.06-.1-.1.09-.08.11-.08a.32.32,0,0,0,.22.14Zm1,0h0l0,0c-.12.08-.31,0-.38,0s-.37.11-.42-.08a.43.43,0,0,1,.22-.06c.17,0,.29.13.46.13a1.09,1.09,0,0,0,.3-.07.27.27,0,0,1-.22.11Zm1.68-1.68c-.07,0-.25-.1-.25-.18l.23-.13.15.11,0,0,0,0h0a.16.16,0,0,1,0,.09c0,.07-.09.11-.16.11Zm1.14-.09c-.09-.08-.2,0-.31-.07s-.39,0-.48-.08a.82.82,0,0,1,.38-.13c.09,0,.13,0,.17,0s.11,0,.16,0a.44.44,0,0,1,.3.33c0,.06-.1.1-.13.1s-.06-.08-.09-.1Zm.16,1.61v-.21s.06-.13.1-.13.06-.05.1-.05.06,0,.09.07-.21.26-.29.32Zm1.08-.42c-.07,0-.08-.08-.08-.12a.19.19,0,0,1,0-.08.56.56,0,0,1,.15.1.08.08,0,0,1-.08.09Zm.23-.21h-.11c-.09,0-.12-.08-.12-.16a.19.19,0,0,1,.14-.18c0,.05,0,.16.09.18a.29.29,0,0,0,0,.16ZM28.1,52.38s0,0,0-.06c0-.3-.11-.66-.44-.66-.11,0-.12.4-.12.54s0,.17.12.17,0,.06.06.08h.36a.21.21,0,0,0,0-.07Zm2.56,4.16c-.13-.08-.39-.09-.49-.16-.19-.3-.52-.3-.6-.67v-.08h.06v-.1s0,0,0-.05.08-.12.08-.17a.27.27,0,0,0-.06-.17v-.29l-.11-.11H10.05a24.5,24.5,0,0,0-.37,2.45H31.87c-.23-.1-.46-.21-.65-.27S30.84,56.65,30.66,56.54Zm-4-9.12a5.68,5.68,0,0,0,1-1.56c.15,0,.29,0,.29.16h0c.18,0,.2-.28.26-.4H13.63a25.27,25.27,0,0,0-1.34,2.45h14l0-.11a1.79,1.79,0,0,1,.35-.54Zm.37,4.78c0-.11-.08-.15,0-.24v-.44c-.1,0-.06-.14-.06-.21s-.19-.72-.44-.69a.55.55,0,0,1-.48-.56.07.07,0,0,1,0-.06H11.45a22.76,22.76,0,0,0-.83,2.45H27.23A.35.35,0,0,1,27.07,52.2Zm15,27.07c-.14,0-.36,0-.36-.13s.23-.26.23-.43-.13-.18-.15-.31a1.22,1.22,0,0,0,.27,0v-.25C42,78,42,77.84,42,77.66l-.06-.16a.34.34,0,0,0-.17,0,3,3,0,0,1,.09.43c0,.08,0,.08-.12.08s-.27-.77-.28-1.07H15.3a28.72,28.72,0,0,0,2.11,2.45H42.07a.17.17,0,0,1,0-.17Zm39.33-38,.2,0Zm-.15.1.1-.07Zm-2,33s0,0,0,0v0a.62.62,0,0,0,.09-.32c0-.16-.21-.27-.21-.37,0-.68-.42-.85-.63-1.18a1.22,1.22,0,0,1-.1-.24H67.77c.41.84.87,1.65,1.36,2.45H79.4c-.11-.11-.19-.23-.16-.34Zm-1.75-6.16a1.33,1.33,0,0,1,.05-.34H66.1a25.43,25.43,0,0,0,.84,2.46h11.2c-.23-.52-.75-.87-.75-1.56,0-.23.17-.42.1-.56Zm32.17,6.42c0-.18.27-.13.35-.25a4,4,0,0,0,.29-.59c-.13-.07-.07-.19-.07-.31v-.91a1.63,1.63,0,0,0,0-.31H84a.43.43,0,0,0,0,0c0,.06.09.1.09.19,0,.3-.27.33-.43.45a3.16,3.16,0,0,0-.6.8,2.35,2.35,0,0,1-.69.68c-.24.12-.51.07-.73.23l-.08,0H109.7a.07.07,0,0,1,0-.08Zm6.22-.58a3.77,3.77,0,0,1-.62-.19.22.22,0,0,0-.14-.09h-.65l-.5.28h-.64c-.2.09-.34.11-.56.23s-.37.34-.85.34h-.32a1.39,1.39,0,0,0-.45.09H116a.58.58,0,0,0,0-.18c0-.17-.13-.3-.13-.48Zm2.74-5.7a1,1,0,0,0,.46.25l0,0c.08-.24.16-.49.23-.74H118C118,68.22,118.44,68.17,118.62,68.35Zm-3-.38a.55.55,0,0,1,.15-.08c.06,0,.11,0,.17,0a.39.39,0,0,0,.15-.06h-.42s0,0-.05.08ZM81.12,41.46l.09-.09Zm4.65,27.47c-.16.11-.25.4-.4.46s-.52.26-.52.5A.14.14,0,0,0,85,70a.41.41,0,0,0,0,.22.13.13,0,0,0,0,.08h2.64c.14-.28.45-.38.45-.78s-.2-.32-.2-.53c0,0,.2-.48.2-.48.21,0,.25-.3.46-.3h.17c.18,0,.31-.17.43-.36H86.92v0c0,.57-.72.73-1.15,1ZM78,65.64a4.77,4.77,0,0,0-.58-1.49c-.18-.28-.51-.41-.71-.65H65.19A24.56,24.56,0,0,0,65.61,66H77.86c0-.14.09-.19.09-.3ZM39.2,47.7l0,0Zm8.55,15.79H47.6a.84.84,0,0,0,0,.14A1.34,1.34,0,0,1,47.75,63.49Zm1.93.12c.19,0,.25.13.38.16s.46-.05.74,0c.59.15.69.78,1.38.78.26,0,.35.43.35.78a1.27,1.27,0,0,1-.15.6h12q.27-1.22.42-2.46H49.12a1,1,0,0,1,.11.28c.14,0,.24-.16.45-.16ZM40.47,47.44c.09,0,.14.08.23.08.32,0,.56-.27.85-.44h0a1,1,0,0,1-.73.14c-.26,0-.59.05-.59.29-.09,0-.34.08-.34.23h-.1v-.08c-.1,0-.05,0-.17,0-.29,0-.39.26-.69.26h-.08a.16.16,0,0,0-.06.12,0,0,0,0,0,0,0h.62a4.87,4.87,0,0,0,.71-.3c.11-.08.09-.33.34-.33Zm8,25.08a2.06,2.06,0,0,1-.12.35c0,.11-.15.08-.19.16-.21.33-.28,1-.75,1a1.66,1.66,0,0,1-.19.69H60.87c.49-.8,1-1.62,1.36-2.46H48.33v.11c0,.07.14.08.14.16ZM51.11,69l.12,0c-.24.18-.08.4-.2.69a6.25,6.25,0,0,1-.31.64H63.07c.32-.8.6-1.62.84-2.45H51.21c0,.21.08.35.08.5a4.75,4.75,0,0,1-.18.57Zm-12.27-21,.1-.08Zm-.73-.61c.2-.25.49-.32.67-.54H39a.17.17,0,0,1,.17.16c0,.22-.25.33-.32.46H39a.32.32,0,0,1,.14-.14c.09.14,0,.14,0,.25s.08,0,.08.07a.09.09,0,0,1,0,0,1.5,1.5,0,0,0,.57-.73.26.26,0,0,0,.28.23c.08,0,.18-.07.18-.14s-.29-.53-.45-.53a3.32,3.32,0,0,1-.63,0s.11-.1.11-.18-.11-.11-.11-.18a.59.59,0,0,1,0-.13c-.1,0-.21-.15-.21-.24a.22.22,0,0,1,0-.08h-.64c-.24.09-.44.23-.74.32s-.49.15-.67.38a.58.58,0,0,0,.23,0,4.89,4.89,0,0,0,1-.2l-.11.06a.11.11,0,0,0,.15,0h0c0,.25.22.18.35.21s.33,0,.57.09c-.11.05-.15.13-.29.13h-.38c-.18,0-.56.26-.54.44a1.69,1.69,0,0,0-.49.9s0,.06.1.07h.12c.43-.06.31-.57.47-.77Zm51.54.61c-.1,0-.12.08-.12.15H90A.57.57,0,0,0,89.65,47.92ZM76.8,61.33c-.31,0-.28-.21-.52-.21s-.48.1-.63.1c-.42,0-.34-.77-.87-.77s-.8.26-1.26.35h0a1.54,1.54,0,0,1-.69.27c-.33,0-.37-.16-.72-.16-.53,0-.57.26-1,.26-.27,0-.34-.2-.46-.29-.39-.29-1.18-.62-1.27-1.05a1.54,1.54,0,0,0-.38-.71H43.84s0,.1-.09.1a.47.47,0,0,1-.17,0l.06-.1h-.39c0,.08.06.15.1.22a.25.25,0,0,1,.17,0c.07,0,.29.09.29.21a.58.58,0,0,1-.08.22c.17,0,.16-.08.29,0a.55.55,0,0,1,.54.56v0h.11c.25,0,.42.37.78.37h.26a1.85,1.85,0,0,1,1.3.59.29.29,0,0,1,.09.23H76.75a.28.28,0,0,1,0-.23ZM39.1,47.77l-.08,0ZM38.4,60a.09.09,0,0,1,0,.05l0,0,0,0Zm51-12.24c0-.13-.24-.06-.34-.16s-.52-.4-.52-.55l.32,0c0-.11-.08-.15-.09-.24a1.35,1.35,0,0,1,.49,0,1.16,1.16,0,0,1,0-.18c0-.13,0-.41-.16-.41s-.11.16-.41,0-.57.62-1,.43c0,.18-.12.23-.12.37s.3.31.37.43a6.41,6.41,0,0,0,.4.61h1.16c0-.1,0-.22-.07-.34ZM45,77.16a.32.32,0,0,1-.26.12c-.22,0-.38-.15-.63-.09a3.64,3.64,0,0,0,.28.47,1,1,0,0,1,.23-.08.2.2,0,0,1,.15.17.12.12,0,0,1-.11.12.38.38,0,0,1-.23-.14.64.64,0,0,0,.14.22.2.2,0,0,0-.14.23.37.37,0,0,0,.08.26c-.13.14-.54.35-.54.54s.53.35.69.38v0a.43.43,0,0,1,0,.07H57.16A27.61,27.61,0,0,0,59.29,77H44.83c0,.07.14.15.16.17Zm71.22-2.45h.07a.75.75,0,0,1,.07-.12.53.53,0,0,0-.14.12Zm-5.68-19.83v-.15h0a2.44,2.44,0,0,1-1,.5c0,.22.11.13,0,.32-.2,0-.19-.23-.19-.38-.17,0-.22-.11-.36-.11h-.32c0,.21-.08.29-.25.22h0v.11c0,.14-.23.24-.23.46a2,2,0,0,0,0,.26c0,.14.17.14.25.22.35.32.52.6.85.85H113c0-.07,0-.13.07-.11a.6.6,0,0,0,.07-.32c0-.13,0-.22,0-.35s0-.21.11-.21.1.19.21.19.1-.08.15-.1l0,0a.64.64,0,0,1,0,.07c0,.14.15.3.15.48a.41.41,0,0,1-.14.3h6.76c-.09-.83-.22-1.64-.38-2.45h-7.06a.85.85,0,0,1,0,.17l-.19-.17H111a.41.41,0,0,0-.23.15Zm-1.09,1.42a.4.4,0,0,1-.37-.32c0-.25.5-.33.7-.35,0,.13-.14.67-.33.67Zm-1.17,3.37c-.12,0-.1-.1-.1-.18s.06-.28,0-.38h-1.87a.34.34,0,0,0,.28.35c0,.27.15.24.15.51s.26.23.37.29.74.56.74.86v.4s0,0,0,0H111a.2.2,0,0,0,.12-.08.77.77,0,0,1,.67-.51s0-.06,0-.08.36-.69.53-.69.23.3.23.39c.23,0,.32.17.53.17,0,0,0,.06,0,.07s-.36,0-.41.16l.15,0v.06a.21.21,0,0,0-.12,0,.38.38,0,0,0-.23.32.36.36,0,0,0,0,.1h7.86c0-.49.07-1,.07-1.48,0-.33,0-.64,0-1H115v0h-.1a.07.07,0,0,1-.08,0h-.24a.43.43,0,0,0-.09.22h0c0-.08,0-.14.07-.22h0c0,.09-.1.16-.1.26s.06.07.06.14,0,.05-.07.05-.26-.2-.26-.28.07-.06.11-.06a.43.43,0,0,1,0-.11H113c0,.1-.1.12-.19.12a.81.81,0,0,1-.41.47h-.08c.1-.28.4-.42.56-.6h-4.1c-.16.21-.34.56-.55.56Zm6.32-.48c.06,0,.11,0,.15,0a.2.2,0,0,1-.19.21s-.07,0-.07,0,.08-.1.11-.16Zm-.6.69c.24,0,.19-.24.39-.24s.13.17.21.17h.07a.13.13,0,0,1,.1-.14c0-.14.21-.1.24-.17a2.17,2.17,0,0,0,0-.25.26.26,0,0,1,.18.09,2.88,2.88,0,0,1,.29.82c0,.11-.14.18-.14.36-.05,0-.15-.24-.15-.27v0s0-.06-.07-.09-.1.09-.1.15.14.11.14.23a.14.14,0,0,1-.13.15s-.06-.06-.06-.09a.14.14,0,0,1-.11,0,.35.35,0,0,1-.3-.37.12.12,0,0,1,.06-.13.54.54,0,0,1,0-.11h-.16a.17.17,0,0,0,0,.1.14.14,0,0,1-.12-.06l0,.06a.52.52,0,0,1-.11-.1c-.12.11-.1.46-.22.46s0-.2,0-.25,0-.07,0-.1a1.37,1.37,0,0,1,.07-.29ZM33.14,56.33c.35,0,.59-.16,1-.16.2-.27.27-.54.46-.78s.81-.23,1.13-.23c.07,0,.12.09.12.16l-.18.23c-.24.3-.15.87-.57,1.07v.14c0,.16-.12.3-.15.42h.22a.41.41,0,0,1,.16,0h1s0,0,0,0H64.86c-.08-.83-.2-1.64-.36-2.45H37.9a.75.75,0,0,1,.37.2c.07.06.28.06.34.08a8.94,8.94,0,0,0,.8.44h0v.06c.19.06.42,0,.46.23-.09,0-.25,0-.23.09a6.62,6.62,0,0,1-.91,0,.64.64,0,0,1,.2-.2v-.07c-.21,0-.41-.06-.41-.23s-.23-.15-.38-.15-.07-.06-.11-.06a2.51,2.51,0,0,1-.59-.18v0h0v0h.07v-.08s-.07,0-.1,0c-.23,0-.34.18-.6.18a.19.19,0,0,1-.16.12h-.13a.13.13,0,0,1,.13,0c0-.19.16-.32.41-.39H32.27a1.09,1.09,0,0,0,0,.26c0,.48.35,1.34.9,1.34Zm8.86,0h.19a1.28,1.28,0,0,0,.27-.05s.07.07.07.12-.24.09-.32.09-.18,0-.21-.07Zm-2-.11c.08,0,.15.06.23.06a.14.14,0,0,0,.12-.11c-.08,0-.06-.15-.06-.2s-.14,0-.14-.09.12-.09.18-.09c.26,0,.47.07.74.07,0,.07.09,0,.14,0s.09.11.16.12.1.09.16.09.18.13.2.2a.31.31,0,0,0-.16.12.11.11,0,0,1-.07-.09h-.33c0,.11-.16,0-.23,0s-.18.15-.35.15,0-.07,0-.1h-.6c-.11,0-.26,0-.26-.16l.27-.05Zm-1.5.16a.13.13,0,0,1,.13-.12,1.18,1.18,0,0,1,.51.22c-.09.13-.31.06-.45.06a1,1,0,0,1-.19-.17s0,0,0,0Zm1.94,3.2c.09,0,.17-.15.17-.19s-.17-.15-.17-.27v0h-.06a.43.43,0,0,0-.1.24c0,.11.05.24.16.24Zm-3.45,0c.09,0,.08.08.19.08.31,0,.29-.27.56-.27a1.2,1.2,0,0,1,.69.38h0l0,0v0a1.09,1.09,0,0,1,.3.07l.06-.22c.07-.11.18-.09.25-.18a1,1,0,0,0,.14-.38H36.46c.13.25.33.48.48.48Zm-2.15-7.32a.93.93,0,0,1-.23,0c-.16,0-.24-.09-.4-.09s-.13.09-.2.09h-.13c-.11,0-.08.12-.14.15H35A.36.36,0,0,1,34.79,52.27Zm78.56-1.7c-.16,0-.31-.3-.4-.57h-1.84a.47.47,0,0,0-.14.33c0,.16.32.18.4.24.42.3.52.63.81,1h-.09c.06.14.17.16.26.25a1.2,1.2,0,0,0-.26.24c.31.09.42.14.43.43h6.87c-.24-.83-.52-1.65-.83-2.45h-1.14a1,1,0,0,0,.07.15c0,.11,0,.26-.13.26s0-.16,0-.16-.14.07-.23.08a.78.78,0,0,1,0,.16.16.16,0,0,1-.08-.1c-.08.07-.13.16-.28.16s-.37-.13-.37,0a1.29,1.29,0,0,0,.17.16c0,.13-.12.19-.17.32a.5.5,0,0,1-.35-.48h-.23c-.2,0-.41.15-.69.13v.14c-.13,0-.43,0-.43-.17.32,0,.33-.44.57-.44s.26-.07.41-.07a.27.27,0,0,1,.24.14c.19-.09,0-.2,0-.28H114a.39.39,0,0,1,.07.23c0,.17-.54.34-.72.34Zm2,.21a.45.45,0,0,0,.23,0s0-.07,0-.1c.18,0,.25.07.35.17-.09.14-.23.12-.38.15s0,.19-.08.19-.23-.2-.23-.32a.11.11,0,0,0,.08-.09Zm-.6,0c0,.1.18.11.29.12s.16.23.23.26-.09.11-.09.17.09.15.09.25,0,.07,0,.16-.43-.15-.43-.27,0-.12-.12-.25-.22-.14-.22-.23.18-.19.28-.21Zm-1.06-3.17s-.45,0-.6.08-.1.17-.1.3,0,0,0,0h3.06c-.08-.1-.11-.2-.25-.24a.26.26,0,0,1,.15-.16c0-.07-.07-.07-.09-.16h.17c-.09-.15,0-.27-.11-.45s-.25-.15-.28-.3c.26,0,.75.52,1.12.52a1.11,1.11,0,0,0,.43-.12v.19c0,.09.09.14.16.2-.12.1-.28.08-.45.1v.29c-.24,0-.38-.16-.66-.16a.47.47,0,0,0-.26,0c.13.11.26.12.38.24h1.33a27.53,27.53,0,0,0-1.33-2.45h-1.29c.08.33.61.67.85.8h-.14a.49.49,0,0,0-.21-.08v.24a3.33,3.33,0,0,1-.75-1h-.59a1.93,1.93,0,0,1,.08.48c0,.45.15,1.66-.63,1.55Zm-78.53,4.8h.25a.12.12,0,0,0-.08,0A.47.47,0,0,0,35.17,52.45ZM44.91,46h.27c0,.09-.23.2-.23.36s.31.35.57.35a.65.65,0,0,0,.51-.28s.1-.17.19-.17h.07v0s0,.08-.08.13.12,0,.12.07-.19.15-.28.23a1.41,1.41,0,0,1-.76.31c-.18,0-.31,0-.49.08s-.19.32-.48.32c-.09,0-.16,0-.16-.13,0-.31.51-.25.58-.5l-.76.11a5.92,5.92,0,0,0-1.25.49c0,.15-.15.22-.15.37s0,.13,0,.17h.09a.25.25,0,0,0,.09,0l.05,0c-.11.14-.27.05-.43.05s0,0-.06,0h20q-.62-1.26-1.35-2.46H48.47l-.11.06a.21.21,0,0,0,.19,0l0,0-.06.05v0h.1a.41.41,0,0,1-.21.2v.07h.06c.11,0,.08-.08.18-.07s-.21.41-.32.41-.1,0-.1-.06.1-.12.1-.12-.1.05-.2.05l.1-.14-.08,0c-.22,0-.34.24-.54.18l.12-.14c-.07,0-.09-.1-.19-.1H47c-.08,0-.27,0-.27-.08s.1-.09.14-.09a.4.4,0,0,1,0-.15.33.33,0,0,1,.26-.13H45.34a.14.14,0,0,1,0,.06c0,.23-.33.17-.45.34Zm-.56-.39H44.1c-.1.1-.21.19-.32.28A3,3,0,0,1,44.35,45.62Zm61.06,15.55c-.12-.08-.35-.25-.35-.38s.13-.1.17-.1c.07.19.31.15.52.15s.25.25.39.38l.14.11a.19.19,0,0,0,.12.07.46.46,0,0,1,.24.17h.58a1.34,1.34,0,0,1-.45-1,1.43,1.43,0,0,0-.59-.78l-.07.11c-.11-.12-.08-.51,0-.83H99.87c-.07.07-.15.14-.15.24a.35.35,0,0,0,.06.14c-.41,0-.22.32-.52.32s-.45-.39-.57-.7H90.42a8.82,8.82,0,0,1-.31.86A7.21,7.21,0,0,1,89,61.56h16.77a2.46,2.46,0,0,0-.4-.39Zm-5.17-.56c-.27,0-.31-.46-.31-.67s.1-.37.12-.65a1.22,1.22,0,0,1,.59,1c0,.18-.21.32-.41.32Zm-60-10.4h0c-.16.08-.34.1-.23.24a.25.25,0,0,1-.19.05c-.21,0-.25.2-.38.27s-.1,0-.12,0v.06c-.31,0-.24.28-.5.36s-.16.2-.28.14a1.21,1.21,0,0,0-.43.89,2,2,0,0,0,0,.24H64c-.24-.83-.51-1.65-.82-2.45H40.44l0,0c-.07.1-.17.08-.22.17Zm-3,1.93c-.13,0-.18.12-.32.14h-.06s0-.07,0-.11-.25-.11-.27-.16H36.2a.11.11,0,0,1-.12.06L35.82,52a1.21,1.21,0,0,1-.38.06v.27a.13.13,0,0,0,.12.08v0h1.95a.33.33,0,0,1,0-.14c0-.13-.15-.14-.27-.17Zm40.14-13h.29a.29.29,0,0,1,0-.13c0-.11.16,0,.2,0s.29-.25.42-.3a.22.22,0,0,0,.22.11c.1,0,.25-.2.28-.21a4.24,4.24,0,0,1,.78-.13.34.34,0,0,1,.34.21c.06-.1.12-.19.26-.19s.37.09.66.09v.18h-.23a.32.32,0,0,0,.35,0,5.59,5.59,0,0,0,1.66.4h2.7a.27.27,0,0,1-.16-.24c.13,0,.13,0,.23,0a.35.35,0,0,1,.28.15.42.42,0,0,1-.14.09h.6a1.34,1.34,0,0,1,.35,0,.27.27,0,0,1,.15,0h.56c.23-.13.44-.3.61-.16a.82.82,0,0,0,.22.16h.1c0-.08-.09-.32-.09-.32h.69a3.5,3.5,0,0,1,1,.32h.56l.09,0a1,1,0,0,1-.92-.8.4.4,0,0,1,.35-.43c1,0,.87.82,1.49,1.12v-.43c-.62-.32-.4-.64-.4-.64.43.1.52.42.94.54,0-.1-.3-.49.56-.45l-.23-.32c.42-.07.89,0,1.09-.09-.17-.13-.15-.11-.29-.13.24-.37,1.31-.51,1.84-.51.33,0,.44,0,.75,0,0-.16.15-.26.33-.32H78.62a.44.44,0,0,1-.21.07.48.48,0,0,1-.26-.07h-.4a26.71,26.71,0,0,0-3.23,2.46h2.64c0-.06.06-.1.18,0ZM86,37.8c0-.65.51-.62,1-.83h.63a1.38,1.38,0,0,1,.66-.18.76.76,0,0,1,.33.05c0,.21-.27.19-.46.24a4.86,4.86,0,0,0-1.44.48c-.08.16-.29.21-.29.43,0,.44.52.33.77.57a5.35,5.35,0,0,0-.8,0c-.11,0-.3-.29-.31-.32a1.82,1.82,0,0,1-.33,0s-.16,0-.17-.13c.27-.1.09-.33.43-.33ZM73.07,45.62h-.34a.53.53,0,0,0,.22.08C73,45.7,73.06,45.66,73.07,45.62Zm-2.23,2c0-.11.16-.12.26-.12s.08-.11.17-.11c.58,0,1.06.16,1.67.16.2,0,.26-.43.26-.62a1,1,0,0,0-.41-.83c-.25-.08-.59,0-.59-.35l.27-.13H69a27.71,27.71,0,0,0-1.35,2.45h3.24a.35.35,0,0,0,.06-.18c0-.11-.14-.16-.14-.27Zm5.5-5v.27s-.08.12.06.13c0,.13-.06.16-.18.16a.27.27,0,0,0,.12.23h-.12v.09h.45c-.07-.17-.27-.25-.27-.3a.14.14,0,0,1,.14-.14c.07,0,.07,0,.14.09v.12c.12,0,.14-.09.23-.13a.81.81,0,0,1,0,.22.24.24,0,0,1,0,.14h2.41a2.18,2.18,0,0,0,0-.51c0-.1,0-.4.26-.4s.24.28.43.24c.35,0,.14-.4.14-.4-.21,0-.37-.13-.37-.29s.56-.2.64-.16a.66.66,0,0,0,.89-.22c-.13,0-.19-.1-.29-.16v0a.57.57,0,0,1-.42.15c-.11,0-.19,0-.23.11a.29.29,0,0,0-.13,0c-.22,0-.41.08-.58.08s-.22-.19-.38-.19-.19-.46-.23-.67h-.87a.65.65,0,0,0-.13.38c0,.28.4.35.57.43,0,.2-.33.14-.55.18h.44c-.13.14-.33.12-.44.25v.5c.13.09,0,.12,0,.25s-.12,0-.14.07c-.25,0-.43,0-.43.22H77.2a.18.18,0,0,1-.2-.16c0-.09,0-.18,0-.24s-.49-.67-.58-.67-.17-.14-.23-.22c-.07.07-.08.07-.06.14-.17.1-.36.35-.54.35s-.57-.17-.57-.27.06-.07.08-.12-.2,0-.2-.09a.6.6,0,0,1,.14-.3.87.87,0,0,1-.17-.56.53.53,0,0,0,.4-.14H72.51a28.23,28.23,0,0,0-2.07,2.45h1a.52.52,0,0,1,.25,0,.61.61,0,0,1,.27,0h.71a.32.32,0,0,1-.12-.22H72c-.07,0-.09,0-.06-.11a.31.31,0,0,0-.15-.1l.12-.18a.53.53,0,0,1-.2-.16,2.75,2.75,0,0,1,1-.55.57.57,0,0,1-.27.4c.22.09.42,0,.58.13-.12.16-.25.21-.25.39a1,1,0,0,0,.23.41h2.81c0-.16-.11-.23-.11-.39s.49-.45.58-.5Zm7.5,5.25a1.65,1.65,0,0,1,.72.2h1.55a2,2,0,0,1,.35,0,1.53,1.53,0,0,0-.3,0s0-.11,0-.17-.17-.19-.34-.29a12.19,12.19,0,0,1-1.38-.76.33.33,0,0,1,.26,0,1,1,0,0,1,0-.24.21.21,0,0,1,.12,0,.64.64,0,0,0-.1-.13c.79-.42,0-.18-.08-.18a5.27,5.27,0,0,0-1,.25c0,.3.47.21.64.43-.27.05-.48.23-.7.23s0-.13-.08-.21-.26-.14-.32-.18c.12-.08.25-.1.26-.22-.29,0-.55,0-.58-.19h-.26c0,.26-.18.34-.34.42,0,0,0,.14.06.16s-.13,0-.2,0c-.08.36-.2.46-.2.75A.41.41,0,0,0,82,48H82l.1.11h1.12a1.3,1.3,0,0,1,.63-.2Zm-5.26-.41c-.15-.05-.25,0-.34,0a1.19,1.19,0,0,1-.41-.62c-.07.09-.11.13-.1.22-.21-.1-.21-.29-.32-.43-.11.09-.2.15-.2.26s0,.17,0,.25.19.26.23.27.25.06.38.18.12.36.31.43.16-.08.23.07H79.4a1.68,1.68,0,0,0-.82-.61ZM76.76,50c0,.12.18.15.18.27s-.23.27-.23.46.23.15.28.18a2.75,2.75,0,0,0,1.13.38c.3,0,.26.28.43.37s.24,0,.38.06.39.32.69.32A.41.41,0,0,0,80,51.8a.22.22,0,0,1-.11-.22c0-.23.39-.48.59-.48s.37.29.5.32a7,7,0,0,0,1.84.46c.27,0,.39-.24.66-.24s.2.14.34.16.43-.13.52,0l0,.06a.24.24,0,0,1,0-.14c0-.14.18-.25.21-.32a4.26,4.26,0,0,0,.28-1.15.46.46,0,0,0-.06-.23h-8v0Zm7,.25s.07-.1.11-.14.07.08.12.08l.16-.08c0,.19-.11.17-.25.27h-.2a.26.26,0,0,1,.06-.13Zm-2.51,0c.17,0,.32-.11.46.06a1.16,1.16,0,0,1-.86-.11c.15,0,.22,0,.4,0ZM43,59.11h-.84a.8.8,0,0,0,.34.11A2.13,2.13,0,0,0,43,59.11ZM98.34,37.62a17.7,17.7,0,0,0,2.3,0,9.43,9.43,0,0,1,1.43.11c1.1,0,1.27.7,2.07.7a6.17,6.17,0,0,0,1.73-.11c.23-.09.28-.69.69-.48a2.18,2.18,0,0,0,1.38.21.24.24,0,0,1,.23-.21c.59,0,.79.72,1.49.64l.4,0a28,28,0,0,0-2.44-1.77H96.84a8,8,0,0,1,2,.56A1,1,0,0,1,98.34,37.62Zm7.91-.51c.32.15.63,0,.92.16,0,.07-.09.13-.17.13-.24,0-.85-.09-.9-.29ZM104.09,37c.17,0,.29.11.46.11s.09-.08.2-.08c.26,0,.92,0,1.06.23-.18.07-.27.1-.4,0v.11h-.69c-.23,0-.83,0-.83-.27,0-.07.14-.1.2-.1Zm7.48,5.44c-.15.26,0,.54-.18.81s-.15.07-.18.3h.32a.76.76,0,0,0,.18-.09l.09.09H115c-.34-.45-.7-.9-1.06-1.33a2.11,2.11,0,0,0-.61-.1c-.54,0-1.45-.16-1.72.32ZM68.42,56.24h0c0-.07-.17-.16-.17-.23s.11-.16.11-.27-.23-.25-.23-.46a1,1,0,0,1,.22-.55H65.51c-.16.81-.28,1.63-.37,2.46h3.07A1.27,1.27,0,0,0,68.42,56.24Zm2.11-4c.15-.36,0-.68.23-.91s.47-.31.69-.52.13-.64.37-.64.11.18.2.21a2.32,2.32,0,0,0,.83.06c.29,0,.47-.24.69-.35l.18-.06H72s-.08.09-.13.09a.22.22,0,0,1-.17-.09H66.87c-.31.8-.59,1.62-.83,2.45h4.28a1.21,1.21,0,0,0,.21-.24Zm-30.77-11a5.89,5.89,0,0,0-.74.6s-.18.37-.22.37.24,0,.24.1-.09.31-.09.48.14,0,.14,0a.52.52,0,0,1,.3-.06c.38,0,.45.36.69.43s.09,0,.21,0,.19.24.41.24a2.35,2.35,0,0,1,.53,0,.06.06,0,0,0,0,0h.83l.27-.08c.09,0,.91-.25.84-.76,0-.18-.28-.09-.28-.31s.13-.18.27-.25l0,0h0a.68.68,0,0,0,.37-.48c0-.21.06-.53.46-.53.14,0,.23.05.37.05h.3c.07,0,.07-.06.15-.07H40.14a.79.79,0,0,0-.38.18Zm36.46,6.63a.25.25,0,0,1,.12-.19.21.21,0,0,0,.08.16v.23h.82a1.21,1.21,0,0,1-.73-.84.66.66,0,0,1-.35-.11c-.14.05-.19.23-.4.23s-.22.25-.44.25-.38-.16-.57-.16a.31.31,0,0,0-.31.32,2.11,2.11,0,0,0,0,.26l0,0h1.8Z"/><path class="cls-1" d="M41.51,37s0,0,0,0l-.1,0,.12.08Zm-3.08,1.88H38c-.22,0-.39.16-.64.26H38a1.41,1.41,0,0,1,.35,0,.3.3,0,0,1,.16,0h.57c-.23,0-.62-.13-.64-.26Zm68.64,44.94a28.83,28.83,0,0,0,3.46-2.45H74.91a28.39,28.39,0,0,0,3.42,2.45Zm-24.84,2,.66.27a4.56,4.56,0,0,0,1-.48H81.71l.2.08A.5.5,0,0,1,82.23,85.78ZM87.5,57.15a1.52,1.52,0,0,0,.11-.32,3,3,0,0,0-.43-.5c-.18-.16-.19-.32-.29-.48s-.36-.3-.54-.54h0l0,0h-.12v-.55H85.17a.33.33,0,0,0,.14.1c.4.15.32,1,.54,1.31.11.16.22.17.32.3s.21.53.34.74h1v0ZM37.31,32.31a27.62,27.62,0,0,0-10.58,2.1H47.89a27.47,27.47,0,0,0-10.58-2.1ZM89.36,86.77h.35c.5-.17.73-.5,1.2-.7a10,10,0,0,1,1.1-.16,11.21,11.21,0,0,0,1.08-.34H90.41C90.05,85.94,89.4,86.18,89.36,86.77Zm7.92-31.49c0-.18-.09-.22-.14-.38,0,.26-.1.57-.38.57s-.6-.4-.74-.57a.55.55,0,0,0,.35-.17h-.13a.16.16,0,0,1-.09.05.31.31,0,0,1-.12-.05H92.91a.19.19,0,0,1,0,.07c0,.45-.69.57-.54.91V56c-.19,0-.23,0-.33,0a.61.61,0,0,1,0,.19.12.12,0,0,0,0,.14c-.39,0-.35.3-.48.34-.31.11-.42,0-.72.11s-.18.33-.31.43l-.06,0h7.33a4.42,4.42,0,0,1-.54-1.91ZM89.12,52a.37.37,0,0,1-.28.27.3.3,0,0,0,.15.23h.72A2.34,2.34,0,0,0,89.12,52Zm31.12,11.53h-.37a3.35,3.35,0,0,0,.36.06A.11.11,0,0,0,120.24,63.49ZM52.76,41.34c-.12.16-.13.5-.5.5s-.28-.29-.69-.29a.27.27,0,0,1-.28-.25v0c0-.07-.12-.13-.17-.22H46.86l.09.07c0,.06-.06.12-.12.12a2.49,2.49,0,0,1-.49-.19H44.88a.35.35,0,0,1,.3.23c0,.07,0,.17.12.17s.45.07.45.25-.23.3-.23.5.25.09.29.16,0,.13.08.13.24-.15.35-.25.18,0,.23-.07a3.31,3.31,0,0,0,.26-.27c.09-.09.12-.2.29-.2a1.59,1.59,0,0,0,.17.55c0,.11,0,.16,0,.29a.32.32,0,0,1,.09.36c0,.08-.14.09-.14.18s.23.08.23.19,0,.11,0,.13a.31.31,0,0,0,.1.05.79.79,0,0,1,.22,0H59.55a25.53,25.53,0,0,0-2.07-2.45H53l0,.06c-.06.15-.16.11-.23.22Zm31.8,10.78L84.49,52a.83.83,0,0,1,.13.43h0a1,1,0,0,0-.08-.33ZM49.45,36.68h0Zm55.85,20a.47.47,0,0,1-.41.43.19.19,0,0,1-.19-.11c-.09,0-.27,0-.27,0s.1-.32.1-.5c0-.48-.72-.83-1-1.13s-.13-.45-.31-.62c-.14.07-.15,0-.26,0a.16.16,0,0,1-.1-.05h0c0,.27-.47.42-.72.34-.33.1-.24.23-.33.51s-.25.14-.43.23-.22.38-.29.46c-.2.25-.34.37-.57.65a1.41,1.41,0,0,1-.5.26h5.6a.82.82,0,0,0-.33-.51ZM72.84,79.44H112.6A28.59,28.59,0,0,0,114.7,77h-44A29,29,0,0,0,72.84,79.44Zm11-27.23a.67.67,0,0,0,.07.24h.12A1.12,1.12,0,0,0,83.87,52.21Zm34.36,11.4s.1.26.17.26.15-.1.16-.13.23-.17.35-.25h-.81C118.11,63.58,118.12,63.61,118.23,63.61Zm-39,10.76v0S79.23,74.36,79.24,74.37Zm34.69-8.61h0Zm-8-4h0M9.93,12c0-7.52,4.22-9.29,11.32-9.29h9.26c11.21,0,12.67,2.41,12.6,9.68H35.23v-.71c0-1.84-1.35-2.38-3.69-2.38H23c-4.15,0-4.93,2-4.93,5.15v2.77c0,3.72.78,5.14,4.5,5.14h8.41c3.55,0,4.62-.35,4.62-3.55h7.88v2.42C43.43,25.57,41.86,29,34,29H21.25c-7.1,0-11.32-1.77-11.32-9.29ZM46.5,3h7.87V28.69H46.5ZM58.15,3H79.62c7.48,0,9.3,3.76,9.3,8.8V14c0,3.83-1.67,8.23-7.25,8.23H66v6.46H58.15ZM66,15.84H78.27c1.84,0,2.55-1.2,2.55-2.73v-1c0-1.74-.85-2.73-3.23-2.73H66ZM91.79,3h28.1V9H99.66v4.12h19.16V18.4H99.66v4.11h20.7v6.18H91.79Z"/></svg>