<svg id="Layer_1" data-name="Layer 1" xmlns="http://www.w3.org/2000/svg" viewBox="0 0 200 90"><defs><style>.cls-1{fill:#adb5bd;}.cls-2{fill:#778692;}</style></defs><title>cpu_logo</title><path class="cls-1" d="M52.32,44.08v.78c0,6.75-2.78,13.34-11.51,13.34-9.42,0-12.35-6.07-12.35-19.41s2.93-19.4,12.4-19.4c10.62,0,11.25,7.79,11.25,11.71v.68h-6v-.62c0-3.51-1-7.43-5.33-7.28-4.45,0-6.38,2.72-6.38,14.76S36.36,53.7,40.81,53.7c5,0,5.54-5.49,5.54-9v-.62Z"/><path class="cls-1" d="M56.5,20.12H68.32c7.17,0,10.31,4.5,10.31,10.88,0,6.69-4,11-10.94,11H62.46V57.47h-6Zm6,17.42H66.7c3.19,0,6-1.68,6-6.44,0-4-1.62-6.48-6.38-6.48H62.46Z"/><path class="cls-1" d="M88.15,20.12V46.9c0,4.76,1.88,6.8,5.49,6.8s5.44-2,5.44-6.8V20.12h6V46.43c0,8.63-4.29,11.77-11.4,11.77S82.18,55.06,82.18,46.43V20.12Z"/><path class="cls-1" d="M58.4,70.41a2.94,2.94,0,0,1,4.25.27,2.28,2.28,0,0,1,.43,1.18H61.76a1.85,1.85,0,0,0-.32-.69,1.33,1.33,0,0,0-1-.41,1.3,1.3,0,0,0-1.11.58A2.87,2.87,0,0,0,58.87,73a2.45,2.45,0,0,0,.43,1.59,1.36,1.36,0,0,0,1.09.53,1.22,1.22,0,0,0,1-.46,2,2,0,0,0,.33-.73h1.31a2.8,2.8,0,0,1-.87,1.68,2.52,2.52,0,0,1-1.79.65,2.67,2.67,0,0,1-2.12-.88,4.15,4.15,0,0,1,.11-5Z"/><path class="cls-1" d="M67.08,71.5a1.8,1.8,0,0,1,.81.69,2.19,2.19,0,0,1,.37,1,5.94,5.94,0,0,1,0,.93H64.9a1.12,1.12,0,0,0,.49,1,1.28,1.28,0,0,0,.67.17,1,1,0,0,0,.68-.21,1.19,1.19,0,0,0,.25-.32h1.25a1.55,1.55,0,0,1-.45.84,2.26,2.26,0,0,1-1.76.68,2.58,2.58,0,0,1-1.65-.57,2.29,2.29,0,0,1-.71-1.87,2.56,2.56,0,0,1,.64-1.87A2.26,2.26,0,0,1,66,71.28,2.57,2.57,0,0,1,67.08,71.5Zm-1.83,1a1.26,1.26,0,0,0-.32.72H67a1,1,0,0,0-.32-.73,1.09,1.09,0,0,0-.73-.26A1,1,0,0,0,65.25,72.55Z"/><path class="cls-1" d="M72.69,71.67a1.56,1.56,0,0,1,.46,1.26v3.14H71.9V73.23a1.37,1.37,0,0,0-.1-.56.69.69,0,0,0-.68-.36.84.84,0,0,0-.85.52,1.85,1.85,0,0,0-.12.71v2.53H68.93V71.41h1.18v.68a2.23,2.23,0,0,1,.45-.52,1.51,1.51,0,0,1,1-.28A1.82,1.82,0,0,1,72.69,71.67Z"/><path class="cls-1" d="M73.8,72.31v-.87h.65v-1.3h1.21v1.3h.76v.87h-.76v2.47a.55.55,0,0,0,.08.36s.19.07.44.07h.24v.92l-.58,0a1.55,1.55,0,0,1-1.18-.3.89.89,0,0,1-.21-.65V72.31Z"/><path class="cls-1" d="M79.06,73.23a1.7,1.7,0,0,0,.49-.11.37.37,0,0,0,.26-.34.42.42,0,0,0-.2-.4,1.37,1.37,0,0,0-.6-.11.75.75,0,0,0-.62.22.9.9,0,0,0-.17.42H77a1.84,1.84,0,0,1,.34-1,2,2,0,0,1,1.68-.62,3,3,0,0,1,1.36.3,1.18,1.18,0,0,1,.6,1.15v2.15c0,.14,0,.33,0,.54a.65.65,0,0,0,.07.32.37.37,0,0,0,.18.14v.18H80a1,1,0,0,1-.08-.26,2.36,2.36,0,0,1,0-.28,2.61,2.61,0,0,1-.58.46,1.83,1.83,0,0,1-.9.23,1.52,1.52,0,0,1-1-.36,1.29,1.29,0,0,1-.42-1,1.34,1.34,0,0,1,.67-1.25,2.93,2.93,0,0,1,1.08-.3Zm.75.57a1.34,1.34,0,0,1-.24.12,1.59,1.59,0,0,1-.33.08l-.28,0a2.09,2.09,0,0,0-.56.17.57.57,0,0,0-.29.52.53.53,0,0,0,.18.45.64.64,0,0,0,.43.14,1.29,1.29,0,0,0,.73-.23,1,1,0,0,0,.36-.84Z"/><path class="cls-1" d="M84.69,71.29h.1v1.25l-.2,0h-.15a1,1,0,0,0-1,.48,1.8,1.8,0,0,0-.14.83v2.23H82.08V71.4h1.16v.82a2.38,2.38,0,0,1,.5-.64,1.32,1.32,0,0,1,.89-.29Z"/><path class="cls-1" d="M87.68,72.4v-1h3.7v1l-2.3,2.65h2.38v1H87.52v-.95l2.31-2.72Z"/><path class="cls-1" d="M94.19,73.23a1.79,1.79,0,0,0,.49-.11.37.37,0,0,0,.26-.34.42.42,0,0,0-.2-.4,1.37,1.37,0,0,0-.6-.11.75.75,0,0,0-.62.22.81.81,0,0,0-.17.42H92.17a1.76,1.76,0,0,1,.34-1,2,2,0,0,1,1.67-.62,3,3,0,0,1,1.37.3,1.18,1.18,0,0,1,.6,1.15v2.15c0,.14,0,.33,0,.54a.65.65,0,0,0,.07.32.37.37,0,0,0,.18.14v.18H95.08a1.45,1.45,0,0,1-.07-.26,2.36,2.36,0,0,1,0-.28,2.61,2.61,0,0,1-.58.46,1.83,1.83,0,0,1-.9.23,1.52,1.52,0,0,1-1-.36,1.29,1.29,0,0,1-.42-1,1.34,1.34,0,0,1,.67-1.25,2.93,2.93,0,0,1,1.08-.3Zm.74.57a1,1,0,0,1-.23.12,1.59,1.59,0,0,1-.33.08l-.28,0a2.09,2.09,0,0,0-.56.17.57.57,0,0,0-.29.52.53.53,0,0,0,.18.45.62.62,0,0,0,.43.14,1.29,1.29,0,0,0,.73-.23.94.94,0,0,0,.35-.84Z"/><path class="cls-1" d="M103.59,71.9a2.52,2.52,0,0,1,.57,1.78,2.81,2.81,0,0,1-.56,1.88,1.81,1.81,0,0,1-1.44.65,1.55,1.55,0,0,1-.93-.28,1.8,1.8,0,0,1-.4-.45v2.43H99.62V71.4h1.17v.69a2.28,2.28,0,0,1,.43-.48,1.54,1.54,0,0,1,1-.31A1.86,1.86,0,0,1,103.59,71.9Zm-.94.88a.87.87,0,0,0-.81-.41.92.92,0,0,0-.92.63,2.25,2.25,0,0,0-.13.84,1.35,1.35,0,0,0,.44,1.15,1,1,0,0,0,.61.19.9.9,0,0,0,.79-.39,1.86,1.86,0,0,0,.27-1.05A1.81,1.81,0,0,0,102.65,72.78Z"/><path class="cls-1" d="M108.92,75.5a2.57,2.57,0,0,1-3.59,0,2.66,2.66,0,0,1-.6-1.76,2.71,2.71,0,0,1,.6-1.75,2.55,2.55,0,0,1,3.59,0,2.76,2.76,0,0,1,.59,1.75A2.71,2.71,0,0,1,108.92,75.5Zm-1-.67a2.17,2.17,0,0,0,0-2.17,1,1,0,0,0-.82-.38,1,1,0,0,0-.83.38,2.17,2.17,0,0,0,0,2.17,1,1,0,0,0,.83.38A1,1,0,0,0,107.94,74.83Z"/><path class="cls-1" d="M111.63,76.07h-1.22V69.75h1.22Z"/><path class="cls-1" d="M114.08,70.84h-1.24V69.72h1.24Zm-1.24.56h1.24v4.67h-1.24Z"/><path class="cls-1" d="M114.78,72.31v-.87h.65v-1.3h1.21v1.3h.76v.87h-.76v2.47a.55.55,0,0,0,.08.36s.19.07.44.07h.24v.92l-.58,0a1.55,1.55,0,0,1-1.18-.3.89.89,0,0,1-.21-.65V72.31Z"/><path class="cls-1" d="M119.44,70.84H118.2V69.72h1.24Zm-1.24.56h1.24v4.67H118.2Z"/><path class="cls-1" d="M120.61,69.78h1.2v3.41l1.54-1.77h1.52l-1.67,1.74,1.74,2.91h-1.49l-1.13-2-.51.52v1.47h-1.2Z"/><path class="cls-1" d="M128.55,71.5a1.8,1.8,0,0,1,.81.69,2.19,2.19,0,0,1,.37,1,4.92,4.92,0,0,1,0,.93h-3.4a1.12,1.12,0,0,0,.49,1,1.31,1.31,0,0,0,.67.17,1,1,0,0,0,.68-.21,1,1,0,0,0,.25-.32h1.25a1.49,1.49,0,0,1-.45.84,2.26,2.26,0,0,1-1.76.68,2.58,2.58,0,0,1-1.65-.57,2.29,2.29,0,0,1-.71-1.87,2.56,2.56,0,0,1,.64-1.87,2.27,2.27,0,0,1,1.68-.64A2.56,2.56,0,0,1,128.55,71.5Zm-1.82,1a1.27,1.27,0,0,0-.33.72h2.11a1,1,0,0,0-.33-.73,1.06,1.06,0,0,0-.72-.26A1,1,0,0,0,126.73,72.55Z"/><path class="cls-1" d="M134.09,70.84h-1.24V69.72h1.24Zm-1.24.56h1.24v4.67h-1.24Z"/><path class="cls-1" d="M138.93,71.4v2.82a1.58,1.58,0,0,0,.09.6.66.66,0,0,0,.65.35.86.86,0,0,0,.86-.5,1.89,1.89,0,0,0,.12-.73V71.4h1.24v4.67H140.7v-.66l-.09.13a.74.74,0,0,1-.16.19,1.59,1.59,0,0,1-1.18.45,1.39,1.39,0,0,1-1.39-.75,2.76,2.76,0,0,1-.2-1.21V71.4Z"/><path class="cls-1" d="M147,71.9a2.52,2.52,0,0,1,.57,1.78,2.81,2.81,0,0,1-.55,1.88,1.84,1.84,0,0,1-1.44.65,1.56,1.56,0,0,1-.94-.28,2,2,0,0,1-.39-.45v2.43H143V71.4h1.17v.69a2,2,0,0,1,.42-.48,1.57,1.57,0,0,1,1-.31A1.84,1.84,0,0,1,147,71.9Zm-.94.88a.84.84,0,0,0-.8-.41.93.93,0,0,0-.93.63,2.47,2.47,0,0,0-.13.84,1.35,1.35,0,0,0,.44,1.15,1,1,0,0,0,.62.19.89.89,0,0,0,.78-.39,1.86,1.86,0,0,0,.27-1.05A1.81,1.81,0,0,0,146.06,72.78Z"/><path class="cls-1" d="M151,71.29h.11v1.25l-.21,0h-.14a1,1,0,0,0-1,.48,1.78,1.78,0,0,0-.15.83v2.23h-1.23V71.4h1.17v.82a2.4,2.4,0,0,1,.49-.64,1.36,1.36,0,0,1,.89-.29Z"/><path class="cls-1" d="M153.7,73.23a1.7,1.7,0,0,0,.49-.11.36.36,0,0,0,.27-.34.41.41,0,0,0-.21-.4,1.29,1.29,0,0,0-.59-.11.75.75,0,0,0-.62.22.81.81,0,0,0-.18.42h-1.17a1.76,1.76,0,0,1,.34-1,2,2,0,0,1,1.67-.62,3,3,0,0,1,1.37.3,1.18,1.18,0,0,1,.6,1.15v2.15c0,.14,0,.33,0,.54a.65.65,0,0,0,.07.32.37.37,0,0,0,.18.14v.18H154.6a1.53,1.53,0,0,1-.08-.26l0-.28a2.67,2.67,0,0,1-.59.46,1.76,1.76,0,0,1-.89.23,1.57,1.57,0,0,1-1.06-.36,1.29,1.29,0,0,1-.41-1,1.34,1.34,0,0,1,.67-1.25,2.93,2.93,0,0,1,1.07-.3Zm.75.57a1.34,1.34,0,0,1-.24.12,1.48,1.48,0,0,1-.32.08l-.28,0a2.09,2.09,0,0,0-.56.17.64.64,0,0,0-.12,1,.64.64,0,0,0,.43.14,1.3,1.3,0,0,0,.74-.23,1,1,0,0,0,.35-.84Z"/><path class="cls-1" d="M159.61,71.4h1.32l-1.69,4.67H158l-1.67-4.67h1.37l1,3.45Z"/><path class="cls-1" d="M162.87,76.07h-1.23V69.75h1.23Z"/><path class="cls-1" d="M163.53,77h.22a.37.37,0,0,0,.27-.09.46.46,0,0,0,.09-.34V71.42h1.23v5.16a1.64,1.64,0,0,1-.28,1A1.38,1.38,0,0,1,164,78h-.43Zm1.81-6.13h-1.23V69.72h1.23Z"/><path class="cls-1" d="M168.35,73.23a1.7,1.7,0,0,0,.49-.11.37.37,0,0,0,.26-.34.42.42,0,0,0-.2-.4,1.33,1.33,0,0,0-.6-.11.75.75,0,0,0-.62.22.9.9,0,0,0-.17.42h-1.18a1.84,1.84,0,0,1,.34-1,2,2,0,0,1,1.68-.62,3,3,0,0,1,1.36.3,1.18,1.18,0,0,1,.6,1.15v2.15c0,.14,0,.33,0,.54a.65.65,0,0,0,.07.32.37.37,0,0,0,.18.14v.18h-1.32a1,1,0,0,1-.08-.26,2.36,2.36,0,0,1,0-.28,2.61,2.61,0,0,1-.58.46,1.83,1.83,0,0,1-.9.23,1.54,1.54,0,0,1-1.05-.36,1.29,1.29,0,0,1-.42-1,1.34,1.34,0,0,1,.67-1.25,2.93,2.93,0,0,1,1.08-.3Zm.75.57a1.34,1.34,0,0,1-.24.12,1.59,1.59,0,0,1-.33.08l-.28,0a2.09,2.09,0,0,0-.56.17.57.57,0,0,0-.29.52.53.53,0,0,0,.18.45.64.64,0,0,0,.43.14,1.29,1.29,0,0,0,.73-.23,1,1,0,0,0,.36-.84Z"/><path class="cls-1" d="M175.15,71.67a1.56,1.56,0,0,1,.46,1.26v3.14h-1.25V73.23a1.37,1.37,0,0,0-.1-.56.69.69,0,0,0-.68-.36.84.84,0,0,0-.85.52,1.85,1.85,0,0,0-.12.71v2.53h-1.22V71.41h1.18v.68a2.23,2.23,0,0,1,.45-.52,1.51,1.51,0,0,1,.95-.28A1.82,1.82,0,0,1,175.15,71.67Z"/><path class="cls-1" d="M176.21,77h.22a.39.39,0,0,0,.28-.09.46.46,0,0,0,.09-.34V71.42H178v5.16a1.58,1.58,0,0,1-.28,1,1.35,1.35,0,0,1-1.09.34h-.44ZM178,70.84H176.8V69.72H178Z"/><path class="cls-1" d="M182.23,71.5a1.91,1.91,0,0,1,.81.69,2.32,2.32,0,0,1,.37,1,7.51,7.51,0,0,1,0,.93H180a1.15,1.15,0,0,0,.49,1,1.32,1.32,0,0,0,.68.17,1.08,1.08,0,0,0,.68-.21,1.42,1.42,0,0,0,.25-.32h1.24a1.49,1.49,0,0,1-.45.84,2.25,2.25,0,0,1-1.76.68,2.54,2.54,0,0,1-1.64-.57,2.27,2.27,0,0,1-.72-1.87,2.56,2.56,0,0,1,.65-1.87,2.25,2.25,0,0,1,1.67-.64A2.6,2.6,0,0,1,182.23,71.5Zm-1.83,1a1.34,1.34,0,0,0-.33.72h2.11a1,1,0,0,0-.33-.73,1,1,0,0,0-.72-.26A1,1,0,0,0,180.4,72.55Z"/><path class="cls-1" d="M58.4,81a2.94,2.94,0,0,1,4.25.27,2.25,2.25,0,0,1,.43,1.18H61.76a1.71,1.71,0,0,0-.32-.69,1.3,1.3,0,0,0-1-.41,1.28,1.28,0,0,0-1.11.58,2.84,2.84,0,0,0-.41,1.64,2.5,2.5,0,0,0,.43,1.6,1.36,1.36,0,0,0,1.09.53,1.25,1.25,0,0,0,1-.46,2.08,2.08,0,0,0,.33-.73h1.31a2.8,2.8,0,0,1-.87,1.68,2.52,2.52,0,0,1-1.79.65,2.7,2.7,0,0,1-2.12-.88,3.56,3.56,0,0,1-.77-2.41A3.48,3.48,0,0,1,58.4,81Z"/><path class="cls-1" d="M67.08,82a1.93,1.93,0,0,1,.81.69,2.23,2.23,0,0,1,.37,1,5.81,5.81,0,0,1,0,.93H64.9a1.12,1.12,0,0,0,.49,1,1.2,1.2,0,0,0,.67.18,1,1,0,0,0,.68-.22.94.94,0,0,0,.25-.32h1.25a1.58,1.58,0,0,1-.45.85,2.3,2.3,0,0,1-1.76.68,2.54,2.54,0,0,1-1.65-.58,2.27,2.27,0,0,1-.71-1.87,2.52,2.52,0,0,1,.64-1.86A2.27,2.27,0,0,1,66,81.81,2.73,2.73,0,0,1,67.08,82Zm-1.83,1.06a1.23,1.23,0,0,0-.32.72H67a1,1,0,0,0-.32-.74,1.08,1.08,0,0,0-.73-.25A1,1,0,0,0,65.25,83.09Z"/><path class="cls-1" d="M72.69,82.2a1.59,1.59,0,0,1,.46,1.26v3.15H71.9V83.77a1.39,1.39,0,0,0-.1-.57.69.69,0,0,0-.68-.36.85.85,0,0,0-.85.53,1.78,1.78,0,0,0-.12.71v2.53H68.93V82h1.18v.68a2,2,0,0,1,.45-.52,1.51,1.51,0,0,1,1-.28A1.81,1.81,0,0,1,72.69,82.2Z"/><path class="cls-1" d="M73.8,82.85V82h.65v-1.3h1.21V82h.76v.87h-.76v2.47a.55.55,0,0,0,.08.36.83.83,0,0,0,.44.07h.24v.91l-.58,0a1.55,1.55,0,0,1-1.18-.3.87.87,0,0,1-.21-.64V82.85Z"/><path class="cls-1" d="M79.8,81.83h.11v1.26l-.21,0h-.14a1,1,0,0,0-1,.48,1.8,1.8,0,0,0-.15.84v2.23H77.19V81.94h1.17v.81a2.79,2.79,0,0,1,.49-.64,1.36,1.36,0,0,1,.9-.28Z"/><path class="cls-1" d="M83.67,82a2.06,2.06,0,0,1,.81.69,2.37,2.37,0,0,1,.37,1,7.31,7.31,0,0,1,0,.93h-3.4a1.11,1.11,0,0,0,.48,1,1.25,1.25,0,0,0,.68.18,1,1,0,0,0,.68-.22,1.08,1.08,0,0,0,.25-.32h1.25a1.6,1.6,0,0,1-.46.85,2.28,2.28,0,0,1-1.76.68A2.49,2.49,0,0,1,81,86.19a2.24,2.24,0,0,1-.71-1.87,2.52,2.52,0,0,1,.64-1.86,2.27,2.27,0,0,1,1.67-.65A2.77,2.77,0,0,1,83.67,82Zm-1.83,1.06a1.23,1.23,0,0,0-.32.72h2.1a1,1,0,0,0-.33-.74,1,1,0,0,0-.72-.25A1,1,0,0,0,81.84,83.09Z"/><path class="cls-1" d="M89.88,80.23l.26,0v1l-.35,0a.39.39,0,0,0-.33.1.4.4,0,0,0-.09.25V82h.8v.86h-.8v3.77H88.15V82.84h-.68V82h.66v-.3a1.54,1.54,0,0,1,.26-1c.17-.28.6-.42,1.28-.42Z"/><path class="cls-1" d="M94.77,86a2.58,2.58,0,0,1-3.6,0,2.91,2.91,0,0,1,0-3.51,2.56,2.56,0,0,1,3.6,0,2.91,2.91,0,0,1,0,3.51Zm-1-.68a2.16,2.16,0,0,0,0-2.16,1.09,1.09,0,0,0-1.65,0,2.16,2.16,0,0,0,0,2.16,1.09,1.09,0,0,0,1.65,0Z"/><path class="cls-1" d="M98.83,81.83h.1v1.26l-.2,0h-.15a1,1,0,0,0-1,.48,2,2,0,0,0-.14.84v2.23H96.22V81.94h1.17v.81a2.53,2.53,0,0,1,.49-.64,1.34,1.34,0,0,1,.89-.28Z"/><path class="cls-1" d="M106.43,83.87a2.4,2.4,0,0,1-1.58.47h-1.32v2.27h-1.31V80.29h2.71a2.19,2.19,0,0,1,1.5.49,1.9,1.9,0,0,1,.55,1.51A1.94,1.94,0,0,1,106.43,83.87Zm-1-2.27a1.06,1.06,0,0,0-.7-.21h-1.19v1.86h1.19a1,1,0,0,0,.7-.23.91.91,0,0,0,.25-.72A.85.85,0,0,0,105.42,81.6Z"/><path class="cls-1" d="M111.84,86a2.57,2.57,0,0,1-3.59,0,2.91,2.91,0,0,1,0-3.51,2.55,2.55,0,0,1,3.59,0,2.91,2.91,0,0,1,0,3.51Zm-1-.68a2.16,2.16,0,0,0,0-2.16,1.07,1.07,0,0,0-1.64,0,2.16,2.16,0,0,0,0,2.16,1.07,1.07,0,0,0,1.64,0Z"/><path class="cls-1" d="M114.56,86.61h-1.23V80.29h1.23Z"/><path class="cls-1" d="M117,81.38h-1.24V80.25H117Zm-1.24.56H117v4.67h-1.24Z"/><path class="cls-1" d="M121,83.61a1.11,1.11,0,0,0-.17-.47.75.75,0,0,0-.64-.28.84.84,0,0,0-.85.61,2.6,2.6,0,0,0-.12.87,2.33,2.33,0,0,0,.12.82.81.81,0,0,0,.82.58.71.71,0,0,0,.61-.23,1.08,1.08,0,0,0,.22-.6h1.25a2.1,2.1,0,0,1-.4,1.06,2.3,2.3,0,0,1-3.37.13,3.19,3.19,0,0,1,.06-3.61,2.05,2.05,0,0,1,1.62-.66,2.45,2.45,0,0,1,1.44.39,1.85,1.85,0,0,1,.66,1.39Z"/><path class="cls-1" d="M123.25,87.51h.16a1.28,1.28,0,0,0,.34,0,.63.63,0,0,0,.28-.1.77.77,0,0,0,.2-.3.67.67,0,0,0,.07-.28l-1.71-4.88H124l1,3.44,1-3.44h1.3l-1.6,4.59a6.33,6.33,0,0,1-.74,1.65,1.4,1.4,0,0,1-1.08.32h-.26l-.3,0Z"/><path class="cls-1" d="M132.24,83.77a2.13,2.13,0,0,0,.49-.11.36.36,0,0,0,.26-.35.39.39,0,0,0-.2-.39,1.17,1.17,0,0,0-.59-.11.79.79,0,0,0-.62.21.89.89,0,0,0-.18.43h-1.18a1.88,1.88,0,0,1,.35-1,2,2,0,0,1,1.67-.61,3,3,0,0,1,1.37.3,1.17,1.17,0,0,1,.6,1.15v2.14c0,.15,0,.33,0,.54a.62.62,0,0,0,.07.33.44.44,0,0,0,.18.14v.18h-1.33a1.62,1.62,0,0,1-.08-.27c0-.08,0-.17,0-.28a2.71,2.71,0,0,1-.59.47,1.76,1.76,0,0,1-.89.23,1.57,1.57,0,0,1-1.06-.37,1.27,1.27,0,0,1-.42-1,1.34,1.34,0,0,1,.67-1.25,3.06,3.06,0,0,1,1.08-.3Zm.75.57a1.34,1.34,0,0,1-.24.12,2.68,2.68,0,0,1-.33.08l-.27,0a1.78,1.78,0,0,0-.56.17.54.54,0,0,0-.29.52.57.57,0,0,0,.17.45.69.69,0,0,0,.43.14,1.32,1.32,0,0,0,.74-.23,1,1,0,0,0,.35-.85Z"/><path class="cls-1" d="M139,82.2a1.56,1.56,0,0,1,.46,1.26v3.15h-1.25V83.77a1.24,1.24,0,0,0-.1-.57.68.68,0,0,0-.68-.36.86.86,0,0,0-.85.53,2,2,0,0,0-.11.71v2.53h-1.23V82h1.19v.68a1.85,1.85,0,0,1,.44-.52,1.53,1.53,0,0,1,1-.28A1.79,1.79,0,0,1,139,82.2Z"/><path class="cls-1" d="M143.12,82a1.55,1.55,0,0,1,.53.52V80.3h1.24v6.31H143.7V86a1.73,1.73,0,0,1-.59.61,1.8,1.8,0,0,1-2.21-.48,2.51,2.51,0,0,1-.56-1.7,2.92,2.92,0,0,1,.55-1.88,1.78,1.78,0,0,1,1.47-.68A1.58,1.58,0,0,1,143.12,82Zm.3,3.33a1.71,1.71,0,0,0,.27-1,1.51,1.51,0,0,0-.44-1.22.91.91,0,0,0-.61-.23.87.87,0,0,0-.79.41,1.83,1.83,0,0,0-.25,1,1.88,1.88,0,0,0,.25,1,.87.87,0,0,0,.78.39A.91.91,0,0,0,143.42,85.34Z"/><path class="cls-1" d="M152.79,82.26a1.24,1.24,0,0,0-.74-.9,1.65,1.65,0,0,0-.72-.14,1.56,1.56,0,0,0-1.25.57,2.61,2.61,0,0,0-.5,1.73,2.12,2.12,0,0,0,.54,1.65,1.73,1.73,0,0,0,1.21.48,1.52,1.52,0,0,0,1.08-.38,1.63,1.63,0,0,0,.53-1h-1.46v-1h2.63v3.39h-.88l-.13-.79a2.73,2.73,0,0,1-.69.63,2.32,2.32,0,0,1-1.28.32,2.67,2.67,0,0,1-2.06-.87,3.3,3.3,0,0,1-.84-2.39,3.54,3.54,0,0,1,.85-2.46,3.26,3.26,0,0,1,4.17-.31,2.29,2.29,0,0,1,.84,1.52Z"/><path class="cls-1" d="M159.17,86a2.58,2.58,0,0,1-3.6,0,2.91,2.91,0,0,1,0-3.51,2.56,2.56,0,0,1,3.6,0,2.91,2.91,0,0,1,0,3.51Zm-1-.68a2.16,2.16,0,0,0,0-2.16,1.09,1.09,0,0,0-1.65,0,2.16,2.16,0,0,0,0,2.16,1.09,1.09,0,0,0,1.65,0Z"/><path class="cls-1" d="M163.51,81.94h1.31l-1.68,4.67h-1.29l-1.68-4.67h1.37l1,3.44Z"/><path class="cls-1" d="M168.56,82a1.93,1.93,0,0,1,.81.69,2.37,2.37,0,0,1,.37,1,5.81,5.81,0,0,1,0,.93h-3.4a1.12,1.12,0,0,0,.49,1,1.2,1.2,0,0,0,.67.18,1,1,0,0,0,.68-.22.94.94,0,0,0,.25-.32h1.25a1.6,1.6,0,0,1-.46.85,2.26,2.26,0,0,1-1.75.68,2.52,2.52,0,0,1-1.65-.58,2.24,2.24,0,0,1-.71-1.87,2.52,2.52,0,0,1,.64-1.86,2.27,2.27,0,0,1,1.67-.65A2.77,2.77,0,0,1,168.56,82Zm-1.83,1.06a1.23,1.23,0,0,0-.32.72h2.1a1,1,0,0,0-.32-.74,1.08,1.08,0,0,0-.73-.25A1,1,0,0,0,166.73,83.09Z"/><path class="cls-1" d="M173,81.83h.11v1.26l-.21,0h-.14a1,1,0,0,0-1,.48,1.82,1.82,0,0,0-.14.84v2.23h-1.23V81.94h1.16v.81a2.79,2.79,0,0,1,.49-.64,1.36,1.36,0,0,1,.9-.28Z"/><path class="cls-1" d="M177.58,82.2a1.56,1.56,0,0,1,.46,1.26v3.15h-1.25V83.77a1.24,1.24,0,0,0-.1-.57.68.68,0,0,0-.68-.36.86.86,0,0,0-.85.53,2,2,0,0,0-.11.71v2.53h-1.23V82H175v.68a1.85,1.85,0,0,1,.44-.52,1.53,1.53,0,0,1,1-.28A1.79,1.79,0,0,1,177.58,82.2Z"/><path class="cls-1" d="M181,83.77a2.13,2.13,0,0,0,.49-.11.37.37,0,0,0,.26-.35.41.41,0,0,0-.2-.39,1.19,1.19,0,0,0-.59-.11.81.81,0,0,0-.63.21,1,1,0,0,0-.17.43H179a1.8,1.8,0,0,1,.35-1,2,2,0,0,1,1.67-.61,3,3,0,0,1,1.37.3,1.18,1.18,0,0,1,.59,1.15v2.14c0,.15,0,.33,0,.54a.71.71,0,0,0,.08.33.44.44,0,0,0,.18.14v.18h-1.33a1,1,0,0,1-.08-.27,2,2,0,0,1,0-.28,2.71,2.71,0,0,1-.59.47,1.83,1.83,0,0,1-.9.23,1.55,1.55,0,0,1-1.05-.37,1.27,1.27,0,0,1-.42-1,1.33,1.33,0,0,1,.67-1.25,3.06,3.06,0,0,1,1.08-.3Zm.75.57a1.34,1.34,0,0,1-.24.12,2.68,2.68,0,0,1-.33.08l-.28,0a1.87,1.87,0,0,0-.56.17.56.56,0,0,0-.29.52.54.54,0,0,0,.18.45.69.69,0,0,0,.43.14,1.32,1.32,0,0,0,.74-.23,1,1,0,0,0,.35-.85Z"/><path class="cls-1" d="M187.83,82.2a1.56,1.56,0,0,1,.46,1.26v3.15H187V83.77a1.39,1.39,0,0,0-.1-.57.69.69,0,0,0-.68-.36.85.85,0,0,0-.85.53,1.78,1.78,0,0,0-.12.71v2.53h-1.22V82h1.18v.68a2,2,0,0,1,.45-.52,1.53,1.53,0,0,1,1-.28A1.81,1.81,0,0,1,187.83,82.2Z"/><path class="cls-1" d="M192.22,83.61a1,1,0,0,0-.18-.47.72.72,0,0,0-.64-.28.83.83,0,0,0-.84.61,2.6,2.6,0,0,0-.12.87,2.33,2.33,0,0,0,.12.82.81.81,0,0,0,.82.58.71.71,0,0,0,.61-.23,1.08,1.08,0,0,0,.22-.6h1.25a2.1,2.1,0,0,1-.4,1.06,2.3,2.3,0,0,1-3.37.13,3.19,3.19,0,0,1,.06-3.61,2.05,2.05,0,0,1,1.62-.66,2.45,2.45,0,0,1,1.44.39,1.85,1.85,0,0,1,.66,1.39Z"/><path class="cls-1" d="M197.35,82a1.93,1.93,0,0,1,.81.69,2.23,2.23,0,0,1,.37,1,4.82,4.82,0,0,1,0,.93h-3.4a1.12,1.12,0,0,0,.49,1,1.2,1.2,0,0,0,.67.18,1,1,0,0,0,.68-.22.94.94,0,0,0,.25-.32h1.25a1.51,1.51,0,0,1-.45.85,2.3,2.3,0,0,1-1.76.68,2.54,2.54,0,0,1-1.65-.58,2.27,2.27,0,0,1-.71-1.87,2.52,2.52,0,0,1,.64-1.86,2.27,2.27,0,0,1,1.67-.65A2.73,2.73,0,0,1,197.35,82Zm-1.83,1.06a1.23,1.23,0,0,0-.32.72h2.1a1,1,0,0,0-.32-.74,1.08,1.08,0,0,0-.73-.25A1,1,0,0,0,195.52,83.09Z"/><circle class="cls-2" cx="41.49" cy="4.7" r="3.2"/><circle class="cls-2" cx="41.49" cy="72" r="3.2"/><circle class="cls-2" cx="17.73" cy="14.61" r="4.89"/><circle class="cls-2" cx="17.73" cy="62.04" r="4.89"/><circle class="cls-2" cx="7.89" cy="38.79" r="6.46"/></svg>