<svg id="Layer_1" data-name="Layer 1" xmlns="http://www.w3.org/2000/svg" viewBox="0 0 390 90"><defs><style>.cls-1{fill:#778692;}.cls-2{fill:#adb5bd;}</style></defs><title>kohovolit_logo</title><path class="cls-1" d="M57,41.08l-1.46-1.36,5.61-1.79-1.25,5.76L58.26,42.2c-.78.87-1.57,1.69-2.27,2.58A65.44,65.44,0,0,0,51.53,52q-3.95,6.67-7.9,13.35a2.9,2.9,0,0,1-.38.58,2.65,2.65,0,0,0-.57,2.5c.1.93.14,1.87.22,2.8.1,1.16.22,2.32.33,3.48s.24,2.35.38,3.53.3,2.39.47,3.59c.11.83.25,1.67.38,2.51-.53,0-1.06.08-1.58.1L39,84.5c-.24,0-.32-.09-.35-.33-.19-1.5-.42-3-.59-4.5s-.29-2.85-.36-4.28c-.17-3.27-.29-6.54-.44-9.82a1.27,1.27,0,0,0-.17-.53c-1.55-2.7-3.13-5.38-4.65-8.1-.31-.56-.78-.51-1.21-.56a44.22,44.22,0,0,1-6.95-1.45c-.3-.08-.42,0-.54.23s-.27.55-.44.87l-1.87-2.89L24.88,53l-.45.93c2.23.57,4.39,1.41,6.84,1l-5.63-9.55-1.25.85L24,41.54l4.25,2-1.11.81c2.93,5.43,6,10.72,10.2,15.36,0-.67.06-1.28.09-1.88.07-1.77.12-3.54.21-5.31s.21-3.45.32-5.17c.09-1.37.2-2.74.28-4.12a.7.7,0,0,0-.16-.46c-2-2.25-4-4.49-6-6.75l-.62.5L30.94,34l2.46.83-.66.5A25.33,25.33,0,0,0,38.39,41l.22-2.85h-1.2l3.28-5L43.3,38.4H42v7.52c.21-.3.38-.52.53-.75a49.75,49.75,0,0,0,7.35-17c.21-1,.21-1-.76-1.21l-1.33-.32,4-4.29L53.5,28l-1.68-.38c-.2.77-.4,1.52-.61,2.28A79,79,0,0,1,45,45.63c-1,1.92-1.9,3.87-2.83,5.82a1.52,1.52,0,0,0-.14.67c.07,2.84.17,5.68.25,8.52,0,.55,0,1.1,0,1.65l.15,0c.58-.86,1.19-1.71,1.74-2.59,2.64-4.2,5.25-8.41,7.89-12.6a26.85,26.85,0,0,1,4.42-5.54C56.65,41.43,56.83,41.28,57,41.08Z"/><path class="cls-2" d="M54.38,58.22A8,8,0,0,0,50.31,57l1-1.84,3.81,2.48c.43-.46.9-.88,1.28-1.37A3.3,3.3,0,0,1,61,55.8a5.25,5.25,0,0,1,2.37,3.48,9.16,9.16,0,0,1-.24,3.08c-.27,1.52-.49,3-.73,4.57a2.52,2.52,0,0,0,0,.48c-1-.23-1.92-.51-2.91-.67s-2-.18-3-.27a7.51,7.51,0,0,1-2.87-.69,4.42,4.42,0,0,1-2.21-4.41,3.64,3.64,0,0,1,1.63-2.15Z"/><path class="cls-2" d="M64,34.38a8.21,8.21,0,0,0-4,1.41c-.08-.65-.17-1.23-.23-1.82,0-.06.2-.2.31-.21,1.19-.1,2.39-.21,3.58-.25.48,0,.63-.21.67-.63,0-.58.13-1.16.18-1.74A3.17,3.17,0,0,1,67,28.58a5.16,5.16,0,0,1,5.81,2.66c.57,1.13,1.08,2.3,1.67,3.42.43.81.93,1.57,1.41,2.37a10,10,0,0,0-3.19,1.32c-.73.43-1.42.93-2.14,1.38a6,6,0,0,1-3.68,1.16,3.93,3.93,0,0,1-3.6-3,7.8,7.8,0,0,1,.33-2.27A11.22,11.22,0,0,1,64,34.38Z"/><path class="cls-2" d="M5.87,47.75a14.65,14.65,0,0,0,5.66-1.31,7.87,7.87,0,0,1,3.08-.56,4.28,4.28,0,0,1,3.76,3.37,4,4,0,0,1-.29,1.69,12,12,0,0,1-.84,1.58c-.1.17-.19.35-.29.53a7.9,7.9,0,0,0,4.19-.36c-.05.56-.1,1.11-.13,1.66,0,.26-.17.28-.36.25L18,54.21l-.77-.14c-.83-.17-.67-.16-1,.58-.23.55-.4,1.13-.63,1.68A2.76,2.76,0,0,1,13,58a5.2,5.2,0,0,1-5.53-4.35c-.33-1.59-.74-3.17-1.14-4.75A9,9,0,0,0,5.87,47.75Z"/><path class="cls-2" d="M42.71,16.66a14.12,14.12,0,0,0,2.37,4.9A7.74,7.74,0,0,1,46.56,25c.15,1.47-1,4-2.91,4.29a4.89,4.89,0,0,1-2.15-.26c-.48-.13-1-.29-1.48-.45a8.15,8.15,0,0,0,1.38,4c-.65.09-1.22.17-1.79.22-.07,0-.21-.19-.22-.3-.08-.73-.13-1.45-.19-2.18a12.46,12.46,0,0,1-.06-1.49c0-.45-.21-.55-.56-.58-.57-.06-1.14-.14-1.7-.19a3.13,3.13,0,0,1-2.61-2.48,5.42,5.42,0,0,1,1-4.63A7.56,7.56,0,0,1,38,19.22c1.39-.69,2.77-1.43,4.15-2.15A5.25,5.25,0,0,0,42.71,16.66Z"/><path class="cls-2" d="M48.89,17a8.5,8.5,0,0,0,.94,4.2c-.65,0-1.22,0-1.78,0-.08,0-.22-.22-.22-.33,0-.92.06-1.84.11-2.76A10,10,0,0,1,48,17c0-.27-.09-.37-.32-.42-.52-.13-1-.3-1.57-.38A3.19,3.19,0,0,1,43.52,13a5.45,5.45,0,0,1,1.59-4,6.81,6.81,0,0,1,2.48-1.35c1.6-.58,3.2-1.18,4.79-1.78a2.81,2.81,0,0,0,.5-.27c.35,1.09.64,2.21,1,3.29.35.89.84,1.73,1.24,2.6a6.47,6.47,0,0,1,.67,2.83,4.4,4.4,0,0,1-3,3.83,3.24,3.24,0,0,1-2-.26C50.21,17.54,49.58,17.27,48.89,17Z"/><path class="cls-2" d="M28.59,20.11a8.25,8.25,0,0,0,3.9,1.69l-1.17,1.68-3.54-2.84a18.44,18.44,0,0,0-1.4,1.21,3.18,3.18,0,0,1-4.19.32,5,5,0,0,1-2.4-4.73,13.8,13.8,0,0,1,.66-2.66,24.72,24.72,0,0,0,1.1-4.7,15,15,0,0,0,5.61,1.6,7.38,7.38,0,0,1,2.95,1A4.53,4.53,0,0,1,31.9,17a3,3,0,0,1-1.43,1.91C29.86,19.33,29.24,19.7,28.59,20.11Z"/><path class="cls-2" d="M16.2,25.42a12.91,12.91,0,0,0,4.43-.06A27,27,0,0,1,24,25a4.34,4.34,0,0,1,4.18,3.31,2.94,2.94,0,0,1-.66,2.62c-.45.58-.92,1.13-1.41,1.73a7.85,7.85,0,0,0,4.24.31c-.16.59-.31,1.11-.46,1.64-.08.29-.27.25-.48.18l-3-1.05-.91-.33a15.29,15.29,0,0,0-.91,1.55,3.33,3.33,0,0,1-4.47,1.53,5.19,5.19,0,0,1-3.45-5c-.06-1.62-.16-3.24-.27-4.86A9.24,9.24,0,0,0,16.2,25.42Z"/><path class="cls-2" d="M68.15,47.88l-2.05.64L66,47.63c.43,0,.83-.07,1.22-.07,1.35,0,1,0,1.18-1.08a1.64,1.64,0,0,1,1.72-1.42,2.45,2.45,0,0,1,2.44,1.38c.49,1,1,2,1.38,2.85l-2.84,1.58a2.26,2.26,0,0,1-2.48.05,1.61,1.61,0,0,1-.79-2C67.91,48.64,68,48.34,68.15,47.88Z"/><path class="cls-2" d="M51.54,34.28,54,35.6c.76.39,1.51.76,1.77,1.69a1.72,1.72,0,0,1-1.27,2.36l-.83.24a4.13,4.13,0,0,0,1.64,1.33l-.78.67c-.39-.53-.76-1-1.11-1.55-.15-.23-.29-.29-.53-.16s-.4.19-.6.29a1.61,1.61,0,0,1-2.1-.56A2.5,2.5,0,0,1,50,37c.33-.54.68-1.06,1-1.6C51.2,35,51.38,34.6,51.54,34.28Z"/><path class="cls-2" d="M61.5,52.83a7.13,7.13,0,0,0-2.69.65,8.84,8.84,0,0,1-1,.3,2.12,2.12,0,0,1-2.56-1.6,2.58,2.58,0,0,1,.22-1.08,6.63,6.63,0,0,1,.51-1l-2.08.21v-.9c.56.08,1.08.15,1.58.24.68.12.68.13.9-.51a1.8,1.8,0,0,1,.7-1.17,2.46,2.46,0,0,1,3.13.81A4.82,4.82,0,0,1,60.72,50c.14.47.19,1,.32,1.44S61.34,52.33,61.5,52.83Z"/><path class="cls-2" d="M20.75,42.72l2-.2-.1.9c-.64-.1-1.26-.16-1.86-.29-.29-.07-.4,0-.48.27a4,4,0,0,0-.15.45,1.73,1.73,0,0,1-2.32,1.21A2.64,2.64,0,0,1,15.91,43c-.23-1-.47-1.92-.68-2.78.8-.24,1.65-.48,2.49-.75a3.82,3.82,0,0,1,2-.33,1.85,1.85,0,0,1,1.39,2.83l-.36.64Z"/><path class="cls-2" d="M22.2,60.31c.48-.79.93-1.58,1.44-2.34a5.34,5.34,0,0,1,1.15-1.45,1.81,1.81,0,0,1,2.92,1.1c.06.25.13.5.21.82a4,4,0,0,0,1.4-1.56l.62.8c-.55.37-1.06.72-1.6,1-.24.15-.29.28-.17.53a7.8,7.8,0,0,1,.31.72,1.5,1.5,0,0,1-.33,1.62,2.55,2.55,0,0,1-3.12.52c-.72-.44-1.4-.94-2.11-1.4A7,7,0,0,0,22.2,60.31Z"/><path class="cls-2" d="M54.23,30.51,53,32.14l-.61-.68,1.77-1.4a8.11,8.11,0,0,0-.45-.88,1.6,1.6,0,0,1,.31-2,2.56,2.56,0,0,1,3-.5c1,.5,1.92,1.05,2.79,1.54-.39.8-.81,1.65-1.21,2.5s-.78,1.6-1.78,1.84a1.71,1.71,0,0,1-2.22-1.17l-.27-.82Z"/><path class="cls-2" d="M62.88,17.33c-.15,1.1-.3,2.22-.45,3.34a2.22,2.22,0,0,1-1.64,2A1.52,1.52,0,0,1,59,22.1c-.21-.27-.41-.55-.7-1l-.72,2-.78-.46c.32-.48.6-1,.94-1.38s.29-.64-.09-.92a1.71,1.71,0,0,1-.76-1.9,2.63,2.63,0,0,1,2.75-1.78c.56.1,1.11.24,1.67.34S62.43,17.26,62.88,17.33Z"/><path class="cls-2" d="M14.68,30.63l-2-1.08a10,10,0,0,0-.65.78,1.62,1.62,0,0,1-1.85.51A2.64,2.64,0,0,1,8.47,28c.12-1,.21-2.05.32-3.11a10.68,10.68,0,0,0,3.36.29,2.2,2.2,0,0,1,1.84.94,1.65,1.65,0,0,1-.21,2.39c-.22.21-.46.4-.81.71l2.07.56Z"/><path class="cls-2" d="M5.81,39.25l2.47-.62c.47-.11.93-.24,1.41-.31a2,2,0,0,1,1.86.87,1.47,1.47,0,0,1,.19,1.68c-.18.35-.39.68-.66,1.16l2.12-.11-.09.88c-.64-.13-1.24-.22-1.83-.37-.31-.08-.46,0-.55.29s-.16.4-.24.61a1.57,1.57,0,0,1-1.7,1,2.64,2.64,0,0,1-2.45-2.45C6.16,41,6,40.07,5.81,39.25Z"/><path class="cls-2" d="M35.27,50.07l2,.65-.42.78c-.45-.28-.87-.53-1.28-.8-.72-.45-.55-.47-1.12.14a1.81,1.81,0,0,1-1.13.76,2.47,2.47,0,0,1-2.53-2.71c.13-1.11.32-2.22.48-3.26,1.22.14,2.5.25,3.77.43a2,2,0,0,1,1.65,1.58,1.43,1.43,0,0,1-.42,1.56C36,49.47,35.68,49.73,35.27,50.07Z"/><path class="cls-2" d="M29.69,42.62l.12,2.12-.89-.1c.13-.66.23-1.29.39-1.9.06-.25,0-.36-.21-.44s-.38-.16-.57-.22a1.65,1.65,0,0,1-1.05-2.18,2.49,2.49,0,0,1,2-1.93l3-.6c.28,1.1.59,2.23.87,3.38a2.13,2.13,0,0,1-.7,2.26,1.54,1.54,0,0,1-1.86.24C30.46,43.08,30.15,42.88,29.69,42.62Z"/><path class="cls-2" d="M37.3,8.23l2.1,1.45c.35.24.72.46,1,.73a2.09,2.09,0,0,1,.68,2.11,1.51,1.51,0,0,1-1.33,1.27L38.67,14l1.5,1.55-.71.48c-.27-.47-.55-.92-.8-1.39s-.33-.61-.92-.36a1.66,1.66,0,0,1-2.07-.22,2.43,2.43,0,0,1-.61-2.59,4.81,4.81,0,0,1,.71-1.19C36.28,9.55,36.83,8.85,37.3,8.23Z"/><path class="cls-2" d="M64.74,53.12h-1l0-.47a5.43,5.43,0,0,0,.83.22.47.47,0,0,0,.4-.17c.35-.56.6-.73,1-.64a1.32,1.32,0,0,1,1,1.1c.07.53.14,1.06.21,1.55-.51.09-1,.17-1.54.27a1.15,1.15,0,0,1-1.31-.42c-.34-.45-.13-.82.14-1.19A2.65,2.65,0,0,0,64.74,53.12Z"/><path class="cls-2" d="M47,46.21l1.66.18a1.11,1.11,0,0,1,1.07.87c.15.5-.2.74-.51,1l-.19.18,1,.34-.21.37-.17-.09c-.44-.32-.8-.6-1.33,0s-1.47-.17-1.51-.93a5.52,5.52,0,0,1,.09-1C46.89,46.83,46.94,46.51,47,46.21Z"/><path class="cls-2" d="M74.14,42.73c-.41.23-.82.48-1.24.69a2.29,2.29,0,0,1-.89.3.89.89,0,0,1-.89-1.25,2.31,2.31,0,0,0,.09-.36l-.5.1a3.39,3.39,0,0,0-.48.19L70.14,42l1.11-.09c0-.11,0-.19.06-.27.09-.61.27-.85.73-1a1.25,1.25,0,0,1,1.29.54C73.63,41.69,73.89,42.23,74.14,42.73Z"/><path class="cls-2" d="M22.75,50.12c.13-.48.21-.94.37-1.37a2.43,2.43,0,0,1,.53-1,.83.83,0,0,1,1.36.28l.23.38.5-.93.32.27a3.72,3.72,0,0,1-.27.33c-.33.32-.5.59-.07,1a.7.7,0,0,1,0,.93,1.27,1.27,0,0,1-1.46.51c-.25-.07-.49-.17-.74-.24S23,50.18,22.75,50.12Z"/><path class="cls-2" d="M14.13,35.74l1-.2.07.38a1.3,1.3,0,0,1-.3,0c-.54-.07-.94,0-1,.68,0,.18-.4.41-.65.46A1.06,1.06,0,0,1,12,36.59c-.29-.53-.51-1.11-.75-1.66l1.51-.74a1.1,1.1,0,0,1,1.34.18c.37.34.25.73.1,1.13C14.18,35.55,14.17,35.61,14.13,35.74Z"/><path class="cls-2" d="M63,43.85l-.89.53L62,44l1-.33a1.62,1.62,0,0,0,0-.32.86.86,0,0,1,.47-1,1.28,1.28,0,0,1,1.42.22c.2.21.38.45.56.67l.55.65c-.4.36-.77.76-1.19,1.07a1.87,1.87,0,0,1-.94.37c-.57,0-.87-.33-.87-.91Z"/><path class="cls-2" d="M15.29,21.94l1,.37-.2.38-.93-.63a1.77,1.77,0,0,0-.2.17.87.87,0,0,1-1.12.32,1.27,1.27,0,0,1-.72-1.28c.09-.56.23-1.11.34-1.64.56.08,1.08.15,1.61.24a1.13,1.13,0,0,1,.94.63.83.83,0,0,1-.27,1.12Z"/><path class="cls-2" d="M66,26.09,65.59,26a3,3,0,0,1,0-.43c.09-.4.13-.73-.44-.86a.94.94,0,0,1-.49-.63,1.16,1.16,0,0,1,.54-1.21,1.48,1.48,0,0,1,.44-.2l1.4-.37c.15.44.32.89.45,1.34a2.28,2.28,0,0,1,.15.81.9.9,0,0,1-1.32.77l-.43-.2a4.5,4.5,0,0,0,0,.53A4.39,4.39,0,0,0,66,26.09Z"/><path class="cls-2" d="M33.32,16.26l1.65.25a1.08,1.08,0,0,1,.86.6.81.81,0,0,1-.28,1.14l-.38.29c.18.1.32.18.46.24s.31.09.49.15l-.21.36L35,18.68a1.59,1.59,0,0,0-.21.15c-.5.46-.75.53-1.15.32a1.29,1.29,0,0,1-.68-1.4C33.08,17.25,33.2,16.75,33.32,16.26Z"/><g id="OEmQXi.tif"><path class="cls-2" d="M152.51,15.8h2.92a45.14,45.14,0,0,1,.07,4.6v9.2l.12,5.82s.51-.57.7-.83c2.7-3.64,6.3-4.9,10.7-4.12a9.38,9.38,0,0,1,6,3.44,15.7,15.7,0,0,1,1.44,2.57c.2.39.3.83.51,1.24.85,6.94.28,13.9.45,20.86a4,4,0,0,1-.08.64,5.27,5.27,0,0,1-3,.13c0-.51-.09-1-.09-1.47,0-5.06,0-10.12,0-15.18a11.28,11.28,0,0,0-1.13-5.3,7.11,7.11,0,0,0-6.12-4,9.37,9.37,0,0,0-9,5.2c-.13.3-.3.58-.51,1V59.19a4.27,4.27,0,0,1-2.81.12c-.45-.39-.32-.91-.32-1.4q0-20.08,0-40.18C152.35,17.12,152.45,16.51,152.51,15.8Z"/><path class="cls-2" d="M354.3,53.14v3a11,11,0,0,1-3.55,2.27,16.84,16.84,0,0,1-2,.69,28.45,28.45,0,0,1-4.64.63,23.66,23.66,0,0,1-7.4-1.32A13.22,13.22,0,0,1,331.3,53a16.47,16.47,0,0,1-2-9.46,15.38,15.38,0,0,1,3.07-8.39,11.93,11.93,0,0,1,7.4-4.63,12.32,12.32,0,0,1,9.71,1.93,12.49,12.49,0,0,1,4.68,6.4,13.28,13.28,0,0,1,.71,4.14,8.11,8.11,0,0,1-.09,1c-.47,0-.91.11-1.35.11H332.92a1.76,1.76,0,0,0-.22.55c0,3.6.87,6.88,3.57,9.46a10.51,10.51,0,0,0,5.32,2.71,12.33,12.33,0,0,0,5.41-.12,14.77,14.77,0,0,0,6.16-3.06C353.47,53.36,353.69,52.93,354.3,53.14Zm-3.2-11.81a10.45,10.45,0,0,0-2.13-5,8,8,0,0,0-6.07-3.2,9.52,9.52,0,0,0-9.81,8.26,2.64,2.64,0,0,0,.66.2C337.1,41.82,350.12,41.65,351.1,41.33Z"/><path class="cls-2" d="M258.72,60.22h-4.59l0-.15c-.57-.19-1.13-.4-1.71-.57a13.87,13.87,0,0,1-9.59-8.64,16.09,16.09,0,0,1,0-11.65A14.09,14.09,0,0,1,245.46,35a12.45,12.45,0,0,1,6.32-4.08c5.74-1.55,10.94-.62,15.17,3.83A14,14,0,0,1,270.63,43a15.17,15.17,0,0,1-3.09,11.78,14.19,14.19,0,0,1-7.28,4.73c-.54.15-1.05.38-1.58.58Zm-1.92-3.1a10.34,10.34,0,0,0,8.37-4.47,12.82,12.82,0,0,0,2-10.67,10.89,10.89,0,0,0-12-8.65,10.43,10.43,0,0,0-8.45,5.78,13.06,13.06,0,0,0-.59,10.72A11,11,0,0,0,256.8,57.12Z"/><path class="cls-2" d="M192.31,59.55a13.5,13.5,0,0,1-9-6.85,15.56,15.56,0,0,1,.09-15.34A13,13,0,0,1,193,30.53a14.52,14.52,0,0,1,11.46,2.32,13.88,13.88,0,0,1,5.41,8.07,16.51,16.51,0,0,1,.37,6.77,13.73,13.73,0,0,1-7.78,10.8C202.28,59.2,193.62,60.26,192.31,59.55Zm1.59-26.22c-.38.12-1,.32-1.63.54a10.58,10.58,0,0,0-5.93,5,13.12,13.12,0,0,0-.92,10.35A11,11,0,0,0,189,54.64,11.2,11.2,0,0,0,201,56a8,8,0,0,0,1.52-1,11,11,0,0,0,3.92-5.59,14.1,14.1,0,0,0,0-8.55A10.86,10.86,0,0,0,197,33.33C196,33.29,195.08,33.33,193.9,33.33Z"/><path class="cls-2" d="M133.83,60.21h-4c-1.32-.46-2.29-.78-3.24-1.13a13.57,13.57,0,0,1-8.74-9.3,15.76,15.76,0,0,1,1-12,13.25,13.25,0,0,1,9.53-7.25,15.17,15.17,0,0,1,8.45.53,12.65,12.65,0,0,1,5.86,4.2c.84,1.08,1.4,2.31,2.21,3.39a24.18,24.18,0,0,1,.95,3.69,12.27,12.27,0,0,1,.07,2.35,25.77,25.77,0,0,1-.17,3.82,14.15,14.15,0,0,1-10.57,11A11.34,11.34,0,0,0,133.83,60.21Zm-9.19-24.37a25.94,25.94,0,0,0-2,2.21c-1.61,2.08-1.83,4.62-2.25,7.09,0,.16.25,1.43.33,1.91a13.73,13.73,0,0,0,1.12,4,12.06,12.06,0,0,0,2.76,3.43,10.39,10.39,0,0,0,1,.76,27.1,27.1,0,0,0,3,1.41,10.78,10.78,0,0,0,11-2.89,11.37,11.37,0,0,0,3-5.89,13.06,13.06,0,0,0-1-8.59,10,10,0,0,0-3.74-4.23,10.21,10.21,0,0,0-5.55-1.8A11.14,11.14,0,0,0,127,34.34,20.23,20.23,0,0,0,124.64,35.84Z"/><path class="cls-2" d="M380.82,31h3.29l.08,28.44L381,59.4a18.36,18.36,0,0,0-.36-4.16,3.4,3.4,0,0,0-.61.49,10.71,10.71,0,0,1-5.8,3.87,17.71,17.71,0,0,1-6.67-.2,9.45,9.45,0,0,1-6.39-7.74,24.24,24.24,0,0,1-.33-4.08c0-5.18,0-10.36,0-15.55,0-.28,0-1,0-1h2.94s.09.74.09,1.14c0,4.19,0,8.37,0,12.56,0,1.78,0,3.57.14,5.34.17,2.46,1,4.64,3.19,6a8,8,0,0,0,5.62,1.1,10.71,10.71,0,0,0,4.76-2,9.87,9.87,0,0,0,3-4,3.3,3.3,0,0,0,.15-1.34c0-5.81,0-11.61,0-17.42C380.77,32,380.82,31,380.82,31Z"/><path class="cls-2" d="M315,58.61l-4.2,1.61h-3.05a8.39,8.39,0,0,0-1.18-.71,6,6,0,0,1-4-5.88c-.05-3.11,0-6.22,0-9.33V34.72c0-.36,0-.72-.06-1.17a8.5,8.5,0,0,0-1-.11h-5.35c-.39,0-.77-.1-1.21-.15v-2.2a3.4,3.4,0,0,1,.9-.3c1.74,0,3.47,0,5.2,0,.45,0,.89-.06,1.42-.1a8.7,8.7,0,0,0,.12-1c0-1.58,0-3.15,0-4.73a2.57,2.57,0,0,1,.57-1.72c.36-.45.74-.88,1.11-1.33a.93.93,0,0,1,1.35-.33,9.61,9.61,0,0,1,.14,2.89c0,1,0,2.07,0,3.11v2.89a2.21,2.21,0,0,0,1.77.34c1.53,0,3.07-.06,4.6-.08a9.87,9.87,0,0,1,1.27.14,3.24,3.24,0,0,1,.22,2.39c-.44,0-.87.14-1.3.15H307.1c-.4,0-.8.05-1.25.08,0,.45-.09.77-.09,1.09q0,9.07,0,18.16a4.1,4.1,0,0,0,.52,2.26,3.6,3.6,0,0,0,2.95,1.78A9.61,9.61,0,0,0,314,56a3.35,3.35,0,0,1,.7-.22c.06,0,.15,0,.32.12Z"/><path class="cls-2" d="M227.32,60.21h-1.77l-12.86-29c.9-.74,1.83-.32,2.65-.42.89.52,1,1.47,1.37,2.22.79,1.55,1.47,3.15,2.15,4.75.9,2.08,1.74,4.19,2.64,6.27.58,1.33,1.25,2.61,1.84,3.93.74,1.61,1.43,3.24,2.15,4.86.23.51.47,1,.83,1.78a43.17,43.17,0,0,0,2.2-4.8c.72-1.53,1.3-3.13,2-4.69s1.31-3,2-4.56,1.34-3.12,2-4.69l2-4.69a3.82,3.82,0,0,1,3-.23,3.49,3.49,0,0,1-.12.86c-1.4,3.37-2.82,6.72-4.23,10.08-1.55,3.7-3.09,7.4-4.65,11.1C229.39,55.34,228.37,57.74,227.32,60.21Z"/><path class="cls-2" d="M94,59.28l-3.35-.05V15.78H94c0,13.31,0,28.32,0,41.63Z"/><path class="cls-2" d="M277.54,15.79h2.67a2.85,2.85,0,0,1,.26,1.69V58c0,.4,0,.81-.05,1.23a5.58,5.58,0,0,1-2.87.11c0-.55-.1-1.07-.1-1.59q0-14.55,0-29.11,0-5.59,0-11.19C277.45,17,277.51,16.42,277.54,15.79Z"/><path class="cls-2" d="M114.18,30.81,98.7,44.4l3.76,3.15c3.31,2.76,13.76,11.7,13.76,11.7l-4,.23-17.88-15c.38-.41.62-.73.92-1,3.92-3.39,14.93-12.76,14.93-12.76Z"/><path class="cls-2" d="M289.37,30.85h2.55c.52.41.39,1,.39,1.59,0,5.55,0,11.09,0,16.64,0,3,0,6,0,9a11.47,11.47,0,0,1-.14,1.3,5.35,5.35,0,0,1-2.78,0,6.32,6.32,0,0,1-.15-1C289.36,49.17,289.09,40.1,289.37,30.85Z"/><path class="cls-2" d="M323.51,53.39c0,1.86,0,3.56,0,5.25a5.71,5.71,0,0,1-.14.7,20.41,20.41,0,0,1-3.73.14,19.15,19.15,0,0,1-.05-6.23A8.74,8.74,0,0,1,323.51,53.39Z"/><path class="cls-2" d="M292.14,15.82a20.11,20.11,0,0,1,.05,5.31,4.45,4.45,0,0,1-2.56.14c-.54-.46-.38-1.12-.39-1.72s0-1.23,0-1.85.09-1.21.15-1.88Z"/></g></svg>