<svg id="Layer_1" data-name="Layer 1" xmlns="http://www.w3.org/2000/svg" viewBox="0 0 390 50"><defs><style>.cls-1{fill:#adb5bd;}</style></defs><title>glasometar_logo</title><path class="cls-1" d="M47.13,44.1V6.4H58.54V34.15h14.3v10Z"/><path class="cls-1" d="M103.57,44.1l-1.35-4.41H88.65L87.3,44.1h-13L88.26,6.4h14.35l13.91,37.7ZM95.44,17.59,91.7,29.74h7.47Z"/><path class="cls-1" d="M115.67,38.79l5.94-8.48a17.56,17.56,0,0,0,12.15,4.86c2.15,0,4.18-.57,4.18-2,0-3.61-21,.06-21-14.8,0-6.39,5.31-12.5,15.65-12.5a24.92,24.92,0,0,1,16,5.26l-6.11,8.08a19.09,19.09,0,0,0-11.08-3.73c-2.26,0-2.88.74-2.88,1.7,0,3.56,21,.51,21,14.52,0,8.31-6.16,13.12-16.28,13.12C125.17,44.78,119.68,42.4,115.67,38.79Z"/><path class="cls-1" d="M151.17,25.28c0-11.59,9-19.5,20.63-19.5s20.63,7.91,20.63,19.5-9,19.5-20.63,19.5S151.17,36.86,151.17,25.28Zm29.67,0c0-5.26-3.56-9.44-9-9.44s-9.05,4.18-9.05,9.44,3.57,9.44,9.05,9.44S180.84,30.53,180.84,25.28Z"/><path class="cls-1" d="M229.85,44.1V21.43L221.43,44.1h-5.09l-8.42-22.67V44.1H196.5V6.4h15.77l6.61,18.08L225.49,6.4h15.77V44.1Z"/><path class="cls-1" d="M289.14,44.1V16.35H279V6.4h31.6v10H300.56V44.1Z"/><path class="cls-1" d="M336.45,44.1l-1.36-4.41H321.53l-1.36,4.41H307.23l13.9-37.7h14.36l13.9,37.7Zm-8.14-26.51-3.73,12.15H332Z"/><path class="cls-1" d="M372.17,44.1,367,32.23h-4.12V44.1H351.43V6.4h20.12c8.82,0,13.57,5.88,13.57,12.94a12.15,12.15,0,0,1-6.79,11.42l6.84,13.34Zm1.36-24.81c0-2-1.81-2.94-3.73-2.94h-6.95v5.93h6.95C371.72,22.28,373.53,21.38,373.53,19.29Z"/><rect class="cls-1" x="247.37" y="20.08" width="19.62" height="9.95"/><rect class="cls-1" x="247.37" y="6.4" width="26.79" height="9.95"/><rect class="cls-1" x="247.37" y="34.15" width="33.07" height="9.95"/><path class="cls-1" d="M24.67,25l14,14a19.74,19.74,0,0,0,5.82-14Zm4.19,7.36a8.48,8.48,0,1,1,0-14.72l7.65-8.55A19.84,19.84,0,1,0,24.67,44.84a19.71,19.71,0,0,0,11.84-3.93Z"/></svg>