<svg id="Layer_1" data-name="Layer 1" xmlns="http://www.w3.org/2000/svg" viewBox="0 0 290 90"><defs><style>.cls-1{fill:#adb5bd;}.cls-2{fill:#778692;}</style></defs><title>zasto_ne_logo</title><polygon class="cls-1" points="249.6 60.67 255.95 69 255.95 59.15 249.6 60.67"/><polygon class="cls-1" points="260.88 42.65 261.9 36.92 268.86 34.8 265.38 43.8 260.88 42.65"/><polygon class="cls-1" points="255.88 41.38 246.41 44.18 251.65 57.8 255.88 56.92 255.88 41.38"/><polygon class="cls-1" points="255.88 19 227.87 32.53 235.05 41.95 244.38 38.77 242.89 34.8 255.88 29.73 255.88 19"/><polygon class="cls-2" points="255.88 29.73 268.86 34.8 261.9 36.92 255.88 34.8 249.74 36.92 242.89 34.8 255.88 29.73"/><polygon class="cls-2" points="235.05 41.95 240.95 43.31 250.43 40.45 244.38 38.77 235.05 41.95"/><polygon class="cls-2" points="255.88 19 283.81 32.53 268.19 52.92 262.65 51.09 260.1 57.8 255.88 56.92 255.88 41.38 265.38 43.8 268.86 34.8 255.88 29.73 255.88 19"/><polygon class="cls-2" points="262.31 60.67 255.95 69 255.95 59.15 262.31 60.67"/><polygon class="cls-2" points="242.89 34.8 249.74 36.92 250.43 40.45 244.38 38.77 242.89 34.8"/><polygon class="cls-2" points="6.19 57.43 28.25 31.68 16.41 31.68 16.41 38.66 6.48 38.66 6.48 24.29 40.2 24.29 40.2 33.93 18.2 59.63 30.5 59.63 30.5 51.31 40.49 51.31 40.49 66.78 6.19 66.78 6.19 57.43"/><path class="cls-2" d="M43.55,57.33c0-3.29.52-5.49,2.5-6.64,2.14-1.21,6.47-1.55,14.38-1.55V46c0-1.15-.52-1.5-2.37-1.5-.63,0-2.19,0-2.94.06v2.54h-10V39A107.18,107.18,0,0,1,58,38.16c10.34,0,12.82,2.6,12.82,8.37V58.72h2.2V66.8H61.8l-.87-2.66a21.72,21.72,0,0,1-10.68,3.07c-4,0-6.7-3.24-6.7-9.87m16.87,2.57V54.08a17.6,17.6,0,0,0-5.26.46c-.86.29-1,1.25-1,2.66,0,2.19.63,3.17,2.25,3.17a19.72,19.72,0,0,0,4.05-.46"/><path class="cls-2" d="M76,66.08V58.7h9.88v2.6c.42.05,2,.11,3.12.11,3.24,0,3.81-.17,3.81-2s-.42-2.19-6.41-3c-8.72-1-10.62-2.83-10.62-9.3,0-6.87,3.63-9,12.64-9a54.05,54.05,0,0,1,13.11,1.25V47H91.82V44.08a21.6,21.6,0,0,0-3.12-.18c-2.54,0-3.18.46-3.18,2,0,1.73.64,2.08,6.25,2.72,9.53,1,10.84,2.59,10.84,9.29,0,6.93-3,9.07-13.69,9.07a76.92,76.92,0,0,1-13-.93m1.33-36.72,2.89-5.2,8.37,3.64,8.25-3.64,3,5.15L88.52,37.08Z"/><path class="cls-2" d="M107.41,58.82V47h-2.5V38.78h2.5V31.62L118,30.46V38.8H124v8.25H118v9.41c0,2.26.69,2.78,2.54,2.78.69,0,2.5-.12,3.81-.29l.46,7.55a73.65,73.65,0,0,1-8.66.58c-6.53,0-8.72-1.8-8.72-8.26"/><path class="cls-2" d="M127.27,52.63c0-12.41,4-14.61,14.56-14.61s14.43,2.08,14.43,14.49-4,14.67-14.55,14.67-14.44-2.13-14.44-14.55m18.36,0c0-6.53-.51-7.73-3.87-7.73s-3.84,1.15-3.84,7.68.51,8,3.92,8,3.81-1.38,3.81-7.91"/><path class="cls-1" d="M159.55,58.3h3.23V33h-3.23V24.29h16l8.25,15.76c2.66,5,4.22,8,4.62,9.12-.23-2-.29-5.83-.29-9.64V33h-3.87V24.29H200V33h-3.06V66.78H186.57L176.41,47.15c-2.88-5.6-4.56-8.43-5.08-10.1.17,2.08.23,6.87.23,10.22v11h4.1v8.48H159.55Z"/><path class="cls-1" d="M201.53,52.63C201.53,39.88,206,38,215.79,38c10.45,0,13.28,2,13.28,12.82v3.58H212c.06,5.48.75,6.63,4.16,6.63a18.19,18.19,0,0,0,2.55-.16V58h10v8.15a70.57,70.57,0,0,1-12.59,1c-10.51,0-14.59-1.9-14.59-14.49m17.61-3.33c-.11-4.34-.75-4.92-3.52-4.92-2.54,0-3.23.53-3.58,4.92Z"/></svg>