<svg id="Layer_1" data-name="Layer 1" xmlns="http://www.w3.org/2000/svg" viewBox="0 0 310 90"><defs><style>.cls-1{fill:#adb5bd;}.cls-2{fill:#778692;}</style></defs><title>zasto_ne_logo</title><polygon class="cls-1" points="263.79 62.34 270.39 71 270.39 60.75 263.79 62.34"/><polygon class="cls-1" points="275.52 43.6 276.58 37.64 283.81 35.43 280.2 44.79 275.52 43.6"/><polygon class="cls-1" points="270.31 42.28 260.46 45.19 265.91 59.35 270.32 58.44 270.31 42.28"/><polygon class="cls-1" points="270.32 19 241.19 33.07 248.66 42.87 258.35 39.56 256.81 35.43 270.32 30.16 270.32 19"/><polygon class="cls-2" points="270.32 30.16 283.81 35.43 276.58 37.64 270.32 35.43 263.93 37.64 256.81 35.43 270.32 30.16"/><polygon class="cls-2" points="248.66 42.87 254.79 44.28 264.64 41.31 258.35 39.56 248.66 42.87"/><polygon class="cls-2" points="270.32 19 299.36 33.07 283.12 54.27 277.36 52.38 274.7 59.35 270.32 58.44 270.31 42.28 280.2 44.79 283.81 35.43 270.32 30.16 270.32 19"/><polygon class="cls-2" points="277 62.34 270.39 71 270.39 60.75 277 62.34"/><polygon class="cls-2" points="256.81 35.43 263.93 37.64 264.64 41.31 258.35 39.56 256.81 35.43"/><polygon class="cls-2" points="10.64 58.97 33.58 32.19 21.27 32.19 21.27 39.45 10.94 39.45 10.94 24.5 46.01 24.5 46.01 34.53 23.13 61.25 35.92 61.25 35.92 52.6 46.31 52.6 46.31 68.69 10.64 68.69 10.64 58.97"/><path class="cls-2" d="M49.49,58.87c0-3.43.54-5.71,2.6-6.91,2.22-1.26,6.73-1.62,15-1.62V47c0-1.2-.55-1.56-2.46-1.56-.67,0-2.29,0-3.07.06v2.65H51.12V39.77a111.7,111.7,0,0,1,13.43-.84c10.75,0,13.33,2.7,13.33,8.7V60.31h2.29v8.4H68.47L67.57,66a22.57,22.57,0,0,1-11.11,3.19c-4.21,0-7-3.37-7-10.27M67,61.55V55.48a18.34,18.34,0,0,0-5.46.48c-.9.3-1.08,1.3-1.08,2.76,0,2.28.65,3.31,2.34,3.31a20.5,20.5,0,0,0,4.2-.49"/><path class="cls-2" d="M83.18,68V60.29H93.47V63c.43.06,2,.12,3.24.12,3.37,0,4-.18,4-2.1s-.43-2.28-6.67-3.13c-9.07-1.08-11-2.94-11-9.66,0-7.15,3.79-9.37,13.16-9.37,6.72,0,11.34.66,13.62,1.3v8h-10V45.08a21.85,21.85,0,0,0-3.24-.18c-2.64,0-3.3.48-3.3,2.09,0,1.81.65,2.17,6.5,2.83,9.9,1.08,11.26,2.7,11.26,9.67,0,7.2-3.12,9.43-14.23,9.43a80,80,0,0,1-13.51-1m1.38-38.19,3-5.4,8.71,3.78,8.58-3.78L108,29.71l-11.7,8.1Z"/><path class="cls-2" d="M115.91,60.41V48.16h-2.6V39.57h2.6V32.12l11-1.2v8.67h6.3v8.59h-6.3V58c0,2.35.72,2.89,2.64,2.89a39.51,39.51,0,0,0,4-.3L134,68.4a75.32,75.32,0,0,1-9,.6c-6.78,0-9.06-1.87-9.06-8.59"/><path class="cls-2" d="M136.56,54c0-12.91,4.15-15.2,15.14-15.2s15,2.17,15,15.07-4.14,15.26-15.13,15.26-15-2.22-15-15.14m19.1,0c0-6.78-.54-8-4-8s-4,1.21-4,8,.54,8.28,4.09,8.28,4-1.43,4-8.23"/><path class="cls-1" d="M170.13,59.87h3.36V33.56h-3.36V24.5h16.64l8.59,16.39c2.76,5.23,4.38,8.29,4.8,9.49-.24-2.05-.31-6.07-.31-10V33.56h-4V24.5h16.34v9.07H209V68.69H198.23L187.66,48.28c-3-5.82-4.74-8.77-5.28-10.51.18,2.16.24,7.14.24,10.63V59.87h4.26v8.82H170.13Z"/><path class="cls-1" d="M213.79,54c0-13.27,4.68-15.2,14.83-15.2,10.87,0,13.81,2.11,13.81,13.34v3.71H224.72c.06,5.71.78,6.91,4.33,6.91a19.55,19.55,0,0,0,2.65-.18v-3h10.4V68a72.42,72.42,0,0,1-13.1,1c-10.92,0-15.16-2-15.16-15.07m18.31-3.47c-.12-4.51-.78-5.11-3.66-5.11-2.64,0-3.36.54-3.72,5.11Z"/></svg>