<?xml version="1.0" standalone="no"?>
<!DOCTYPE svg PUBLIC "-//W3C//DTD SVG 20010904//EN"
 "http://www.w3.org/TR/2001/REC-SVG-20010904/DTD/svg10.dtd">
<svg version="1.0" xmlns="http://www.w3.org/2000/svg"
 width="512.000000pt" height="512.000000pt" viewBox="0 0 512.000000 512.000000"
 preserveAspectRatio="xMidYMid meet">
<metadata>
Created by potrace 1.11, written by Peter Selinger 2001-2013
</metadata>
<g transform="translate(0.000000,512.000000) scale(0.100000,-0.100000)"
fill="#000000" stroke="none">
<path d="M2409 4487 c-2 -3 -33 -8 -69 -11 -641 -67 -1241 -498 -1522 -1094
-45 -94 -119 -300 -132 -362 -3 -14 -8 -36 -11 -50 -3 -14 -7 -37 -10 -52 -7
-40 -16 -89 -21 -123 -13 -73 -12 -394 1 -485 32 -223 86 -408 169 -582 52
-109 115 -221 128 -226 4 -2 8 -8 8 -14 0 -21 148 -205 239 -296 94 -94 251
-228 281 -239 8 -3 24 -14 35 -23 28 -24 190 -114 261 -146 134 -60 323 -120
434 -138 306 -51 543 -45 830 20 81 18 222 63 234 75 6 5 16 9 23 9 37 0 308
146 400 215 l42 32 -36 39 c-35 39 -122 137 -163 184 -12 14 -36 41 -54 60
-17 19 -72 80 -121 135 -50 55 -104 116 -122 135 -17 19 -40 44 -50 56 -35 40
-148 167 -176 197 l-28 30 -52 -25 c-61 -30 -96 -43 -157 -59 -81 -20 -94 -22
-205 -22 -170 0 -315 44 -458 140 -123 83 -248 234 -297 361 -12 31 -26 66
-31 77 -20 46 -37 181 -34 273 9 258 137 495 351 648 228 163 534 195 801 82
43 -18 80 -33 83 -33 3 0 44 43 90 95 47 52 90 100 95 106 6 6 46 51 90 99 44
48 88 97 98 109 35 40 142 160 193 215 28 31 66 74 85 96 19 22 41 47 49 55
57 57 58 52 -32 111 -97 64 -97 64 -216 123 -100 51 -108 54 -227 97 -94 35
-264 77 -380 94 -49 7 -409 17 -416 12z"/>
<path d="M2612 2552 l-43 -3 685 -685 686 -686 28 29 c177 180 344 451 432
698 37 106 77 264 86 344 3 31 8 59 10 62 8 14 16 239 8 240 -35 2 -1858 3
-1892 1z"/>
</g>
</svg>
